<svg width="100%" height="59" viewBox="0 0 128 59" fill="none" xmlns="http://www.w3.org/2000/svg">
<path d="M127.668 2.232C127.668 2.232 127.668 2.358 127.668 2.61C127.704 2.862 127.722 3.15 127.722 3.474C127.758 3.762 127.776 4.05 127.776 4.338C127.812 4.626 127.83 4.806 127.83 4.878C127.686 6.138 127.452 7.398 127.128 8.658C126.804 9.882 126.336 11.07 125.724 12.222C125.364 12.906 125.04 13.536 124.752 14.112C124.464 14.652 124.248 15.3 124.104 16.056C124.068 16.38 123.96 16.776 123.78 17.244C123.6 17.676 123.456 18.162 123.348 18.702C123.276 19.206 123.294 19.746 123.402 20.322C123.51 20.862 123.816 21.42 124.32 21.996C124.356 22.032 124.356 22.05 124.32 22.05C124.32 22.05 124.23 21.996 124.05 21.888C123.906 21.78 123.726 21.636 123.51 21.456C123.33 21.276 123.15 21.078 122.97 20.862C122.826 20.646 122.718 20.448 122.646 20.268C122.466 19.728 122.358 19.242 122.322 18.81C122.286 18.342 122.304 17.802 122.376 17.19C122.088 17.622 121.8 18.054 121.512 18.486C121.224 18.882 120.918 19.278 120.594 19.674C120.27 19.998 119.874 20.34 119.406 20.7C118.974 21.024 118.65 21.402 118.434 21.834C118.758 21.762 119.064 21.636 119.352 21.456C119.64 21.276 119.946 21.15 120.27 21.078C120.702 20.97 121.116 20.97 121.512 21.078C121.944 21.15 122.07 21.204 121.89 21.24C121.134 21.312 120.558 21.474 120.162 21.726C119.802 21.978 119.514 22.266 119.298 22.59C119.082 22.914 118.902 23.238 118.758 23.562C118.65 23.886 118.488 24.138 118.272 24.318C117.876 24.642 117.462 24.912 117.03 25.128C116.598 25.344 116.184 25.632 115.788 25.992C115.212 26.496 114.744 26.964 114.384 27.396C114.06 27.792 113.79 28.206 113.574 28.638C113.358 29.07 113.178 29.556 113.034 30.096C112.926 30.636 112.818 31.266 112.71 31.986C112.89 31.878 113.052 31.788 113.196 31.716C113.376 31.608 113.52 31.464 113.628 31.284C113.736 31.176 113.88 31.068 114.06 30.96C114.24 30.852 114.42 30.744 114.6 30.636C114.816 30.528 114.996 30.456 115.14 30.42C115.32 30.348 115.428 30.312 115.464 30.312C115.5 30.312 115.518 30.33 115.518 30.366C115.518 30.366 115.5 30.366 115.464 30.366C114.888 30.762 114.42 31.248 114.06 31.824C113.736 32.4 113.52 32.994 113.412 33.606C113.304 34.218 113.304 34.83 113.412 35.442C113.52 36.054 113.754 36.594 114.114 37.062C114.474 37.494 114.96 37.89 115.572 38.25C116.184 38.61 116.796 38.79 117.408 38.79C117.984 38.79 118.488 38.556 118.92 38.088C119.244 37.728 119.424 37.314 119.46 36.846C119.496 36.342 119.442 35.838 119.298 35.334C119.19 34.83 119.028 34.326 118.812 33.822C118.632 33.318 118.47 32.886 118.326 32.526C118.146 32.058 117.948 31.662 117.732 31.338C117.552 31.014 117.354 30.708 117.138 30.42C116.958 30.096 116.796 29.79 116.652 29.502C116.544 29.214 116.472 28.872 116.436 28.476C116.4 27.972 116.454 27.522 116.598 27.126C116.742 26.73 116.904 26.388 117.084 26.1C117.264 25.812 117.444 25.596 117.624 25.452C117.804 25.272 117.912 25.182 117.948 25.182V25.236C117.48 26.136 117.354 26.928 117.57 27.612C117.786 28.296 118.146 28.926 118.65 29.502C119.154 30.042 119.712 30.564 120.324 31.068C120.972 31.536 121.494 32.04 121.89 32.58C122.286 33.156 122.664 33.75 123.024 34.362C123.42 34.938 123.798 35.532 124.158 36.144C124.554 36.792 124.752 37.458 124.752 38.142C124.788 38.79 124.896 39.474 125.076 40.194C125.112 40.302 125.148 40.482 125.184 40.734C125.22 40.95 125.256 41.184 125.292 41.436C125.328 41.688 125.346 41.922 125.346 42.138C125.382 42.318 125.4 42.408 125.4 42.408C125.04 41.328 124.698 40.644 124.374 40.356C124.086 40.068 123.87 39.888 123.726 39.816C123.69 40.104 123.744 40.392 123.888 40.68C124.032 40.968 124.176 41.256 124.32 41.544C124.572 42.084 124.752 42.696 124.86 43.38C125.004 44.1 125.058 44.82 125.022 45.54C125.022 46.26 124.968 46.98 124.86 47.7C124.608 49.212 124.302 50.598 123.942 51.858C123.582 53.118 123.024 54.396 122.268 55.692C122.196 55.8 122.034 55.98 121.782 56.232C121.53 56.52 121.368 56.7 121.296 56.772C121.116 56.952 120.882 57.15 120.594 57.366C120.306 57.582 120.018 57.78 119.73 57.96C119.478 58.176 119.244 58.338 119.028 58.446C118.848 58.59 118.74 58.662 118.704 58.662C119.712 57.834 120.324 57.186 120.54 56.718C120.756 56.25 120.9 55.98 120.972 55.908C121.224 55.404 121.386 54.882 121.458 54.342C121.53 53.802 121.602 53.28 121.674 52.776C121.746 52.056 121.764 51.336 121.728 50.616C121.728 49.896 121.638 49.194 121.458 48.51C121.062 47.142 120.378 46.098 119.406 45.378C118.434 44.694 117.228 44.352 115.788 44.352C115.428 44.352 115.068 44.388 114.708 44.46C114.348 44.496 113.988 44.604 113.628 44.784C113.556 44.784 113.646 44.658 113.898 44.406C114.186 44.154 114.636 43.938 115.248 43.758C115.32 43.722 115.446 43.686 115.626 43.65C115.806 43.614 115.968 43.578 116.112 43.542C116.292 43.47 116.436 43.398 116.544 43.326C116.688 43.254 116.76 43.182 116.76 43.11C116.688 42.894 116.418 42.696 115.95 42.516C115.518 42.336 115.212 42.21 115.032 42.138C114.78 42.03 114.546 41.922 114.33 41.814C114.114 41.706 113.88 41.598 113.628 41.49C113.016 41.166 112.422 40.824 111.846 40.464C111.306 40.104 110.694 39.834 110.01 39.654C109.83 39.582 109.614 39.528 109.362 39.492C109.146 39.42 108.93 39.384 108.714 39.384C108.498 39.384 108.3 39.438 108.12 39.546C107.94 39.618 107.814 39.744 107.742 39.924C107.67 40.14 107.652 40.41 107.688 40.734C107.76 41.058 108.21 41.526 109.038 42.138C109.038 42.174 109.038 42.192 109.038 42.192C108.93 42.192 108.66 42.138 108.228 42.03C107.796 41.886 107.526 41.778 107.418 41.706C107.058 41.526 106.752 41.292 106.5 41.004C106.284 40.68 106.086 40.356 105.906 40.032C105.078 38.736 104.196 37.8 103.26 37.224C102.36 36.612 101.1 36.306 99.4804 36.306C98.2204 36.306 97.1224 36.594 96.1864 37.17C96.1144 37.17 96.2044 36.99 96.4564 36.63C96.7444 36.234 97.0864 35.874 97.4824 35.55C97.8784 35.226 98.3644 34.992 98.9404 34.848C99.5164 34.704 100.11 34.596 100.722 34.524C101.334 34.416 101.928 34.29 102.504 34.146C103.08 34.002 103.548 33.75 103.908 33.39C104.268 33.066 104.538 32.832 104.718 32.688C104.898 32.508 105.042 32.328 105.15 32.148C105.258 31.968 105.366 31.788 105.474 31.608C105.582 31.392 105.762 31.05 106.014 30.582C106.374 30.258 106.59 29.952 106.662 29.664C106.77 29.34 106.77 29.052 106.662 28.8C106.59 28.548 106.428 28.35 106.176 28.206C105.96 28.026 105.708 27.936 105.42 27.936C104.952 27.936 104.538 28.098 104.178 28.422L104.124 28.476L106.284 26.532C106.392 26.424 106.5 26.406 106.608 26.478C107.112 26.298 107.598 26.1 108.066 25.884C108.534 25.632 109.02 25.398 109.524 25.182C109.056 25.074 108.696 24.894 108.444 24.642C108.228 24.426 107.976 24.3 107.688 24.264C107.436 24.192 107.184 24.156 106.932 24.156C106.68 24.156 106.482 24.174 106.338 24.21C106.23 24.21 106.194 24.192 106.23 24.156C106.41 24.048 106.698 23.958 107.094 23.886C107.526 23.814 107.958 23.76 108.39 23.724C108.858 23.688 109.29 23.652 109.686 23.616C110.118 23.58 110.442 23.526 110.658 23.454C111.198 23.202 111.666 22.842 112.062 22.374C112.458 21.87 112.8 21.366 113.088 20.862C113.34 20.394 113.574 19.944 113.79 19.512C114.006 19.08 114.294 18.684 114.654 18.324C114.906 18.072 115.158 17.874 115.41 17.73C115.23 17.766 115.032 17.802 114.816 17.838C114.636 17.838 114.42 17.892 114.168 18C113.916 18.108 113.646 18.306 113.358 18.594C113.106 18.882 112.836 19.332 112.548 19.944C112.512 19.944 112.53 19.746 112.602 19.35C112.71 18.918 112.836 18.558 112.98 18.27C113.304 17.55 113.7 17.046 114.168 16.758C114.636 16.434 115.122 16.128 115.626 15.84C115.986 15.66 116.328 15.462 116.652 15.246C116.976 15.03 117.282 14.778 117.57 14.49C117.786 14.31 118.02 14.076 118.272 13.788C118.56 13.5 118.794 13.212 118.974 12.924C118.506 13.068 118.056 13.194 117.624 13.302C117.192 13.374 116.724 13.392 116.22 13.356C115.572 13.32 114.942 13.266 114.33 13.194C113.718 13.086 113.088 13.014 112.44 12.978C112.512 13.158 112.566 13.32 112.602 13.464C112.674 13.572 112.764 13.77 112.872 14.058C112.944 14.382 112.98 14.652 112.98 14.868C112.98 15.084 112.944 15.138 112.872 15.03C112.692 14.526 112.368 14.184 111.9 14.004C111.468 13.824 110.982 13.734 110.442 13.734C110.118 13.734 109.74 13.752 109.308 13.788C108.912 13.824 108.498 13.896 108.066 14.004C107.67 14.076 107.292 14.22 106.932 14.436C106.608 14.616 106.356 14.868 106.176 15.192C106.032 15.408 105.888 15.768 105.744 16.272C105.6 16.74 105.222 17.082 104.61 17.298L104.502 17.352C104.61 17.28 104.7 17.172 104.772 17.028C104.952 16.776 105.096 16.362 105.204 15.786C105.24 15.606 105.204 15.48 105.096 15.408C105.024 15.336 105.024 15.21 105.096 15.03C104.664 15.282 104.286 15.606 103.962 16.002C103.674 16.362 103.386 16.758 103.098 17.19C103.026 17.298 102.9 17.424 102.72 17.568C102.576 17.712 102.414 17.892 102.234 18.108C102.09 18.288 101.982 18.54 101.91 18.864C101.838 19.152 101.838 19.53 101.91 19.998C101.982 20.538 102.018 20.862 102.018 20.97C102.018 21.042 101.982 21.024 101.91 20.916C101.874 20.808 101.82 20.664 101.748 20.484C101.676 20.268 101.622 20.124 101.586 20.052C101.37 19.512 101.28 18.99 101.316 18.486C101.388 17.946 101.514 17.424 101.694 16.92C101.946 16.128 102.252 15.39 102.612 14.706C103.008 14.022 103.422 13.338 103.854 12.654C104.286 11.97 104.646 11.358 104.934 10.818C105.258 10.242 105.528 9.684 105.744 9.144C105.96 8.604 106.14 8.046 106.284 7.47C106.464 6.858 106.662 6.174 106.878 5.418C106.95 5.166 107.004 4.842 107.04 4.446C107.076 4.05 107.058 3.636 106.986 3.204C106.914 2.736 106.77 2.268 106.554 1.8C106.338 1.296 106.014 0.827997 105.582 0.395996C105.582 0.395996 105.654 0.449996 105.798 0.557997C105.978 0.665996 106.176 0.827996 106.392 1.044C106.608 1.224 106.824 1.44 107.04 1.692C107.292 1.944 107.49 2.232 107.634 2.556C107.994 3.276 108.138 4.014 108.066 4.76999C108.03 5.526 108.12 6.264 108.336 6.98399C108.552 7.704 109.02 8.226 109.74 8.55C110.496 8.838 111.234 8.964 111.954 8.928C111.882 8.532 111.792 8.244 111.684 8.064C111.612 7.884 111.522 7.74 111.414 7.632C111.306 7.488 111.198 7.362 111.09 7.25399C110.982 7.146 110.874 7.002 110.766 6.822C110.478 6.318 110.334 5.778 110.334 5.202C110.334 4.59 110.352 4.284 110.388 4.284C110.568 5.04 110.928 5.724 111.468 6.336C112.008 6.948 112.638 7.47 113.358 7.902C114.078 8.334 114.834 8.676 115.626 8.928C116.454 9.144 117.246 9.252 118.002 9.252C118.29 9.252 118.65 9.252 119.082 9.252C119.514 9.216 119.946 9.162 120.378 9.09C120.81 9.018 121.206 8.928 121.566 8.82C121.926 8.676 122.196 8.478 122.376 8.226C122.736 7.794 123.096 7.488 123.456 7.308C123.852 7.092 124.104 6.98399 124.212 6.98399C123.492 7.524 123.06 8.028 122.916 8.49599C122.808 8.928 122.736 9.198 122.7 9.306C123.096 9.126 123.456 8.874 123.78 8.55C124.14 8.226 124.464 7.92 124.752 7.632C124.968 7.416 125.202 7.218 125.454 7.038C125.706 6.858 125.958 6.588 126.21 6.22799C126.462 5.868 126.714 5.382 126.966 4.76999C127.218 4.158 127.452 3.312 127.668 2.232Z" fill="black"/>
<path d="M94.1638 33.6062C94.3438 33.2102 94.4878 32.6522 94.5958 31.9322C94.7398 31.2122 94.7758 30.4742 94.7038 29.7182C94.6678 28.9262 94.4698 28.1882 94.1098 27.5042C93.7858 26.8202 93.2098 26.3342 92.3818 26.0462C91.9498 25.8662 91.8778 25.7222 92.1658 25.6142C92.4538 25.5062 92.7778 25.3442 93.1378 25.1282C93.3538 24.9842 93.5518 24.7322 93.7318 24.3722C93.9118 23.9762 93.9658 23.6342 93.8938 23.3462C93.3898 21.8342 92.7598 20.5382 92.0038 19.4582C91.2478 18.3782 90.3658 17.4782 89.3578 16.7582C88.3858 16.0022 87.2698 15.3902 86.0098 14.9222C84.7858 14.4542 83.4358 14.0582 81.9598 13.7342C82.1038 13.8782 82.2478 14.0942 82.3918 14.3822C82.5358 14.6702 82.6798 14.9762 82.8238 15.3002C83.0038 15.5882 83.1478 15.8942 83.2558 16.2182C83.3998 16.5062 83.5258 16.7402 83.6338 16.9202C83.6698 16.9562 83.6878 16.9922 83.6878 17.0282C84.5518 17.8922 85.0918 18.8642 85.3078 19.9442C85.3798 20.4122 85.3978 20.9162 85.3618 21.4562C85.3258 21.9602 85.3078 22.4642 85.3078 22.9682C85.3078 23.4722 85.3618 23.9582 85.4698 24.4262C85.6138 24.8942 85.9018 25.2902 86.3338 25.6142C86.4058 25.6862 86.5318 25.8482 86.7118 26.1002C86.8918 26.3162 87.0718 26.5502 87.2518 26.8022C87.4678 27.0182 87.6298 27.2342 87.7378 27.4502C87.8818 27.6302 87.9358 27.7202 87.8998 27.7202H87.8458C87.3058 27.2522 86.6938 26.9102 86.0098 26.6942C85.3258 26.4782 84.9298 26.4242 84.8218 26.5322C84.6058 26.7122 84.4798 26.8742 84.4438 27.0182C84.4078 27.1262 84.4258 27.2342 84.4978 27.3422C84.5698 27.4142 84.6598 27.4862 84.7678 27.5582C84.9118 27.6302 85.0198 27.7022 85.0918 27.7742C85.2358 27.8822 85.3618 27.9902 85.4698 28.0982C85.6138 28.2062 85.7218 28.3322 85.7938 28.4762C86.0098 28.8722 86.0638 29.3042 85.9558 29.7722C85.8478 30.2042 85.7578 30.6182 85.6858 31.0142C85.5778 31.4822 85.6138 32.0762 85.7938 32.7962C85.9738 33.5162 86.1718 34.2722 86.3878 35.0642C86.6038 35.8562 86.7838 36.6662 86.9278 37.4942C87.0718 38.3222 87.0538 39.0962 86.8738 39.8162C87.3778 39.0602 87.8998 38.4842 88.4398 38.0882C89.0158 37.6922 89.5018 37.4582 89.8978 37.3862C90.2218 37.3502 90.6178 37.1882 91.0858 36.9002C91.5898 36.5762 91.9858 36.3242 92.2738 36.1442C92.6698 35.8922 93.0298 35.5142 93.3538 35.0102C93.7138 34.4702 93.9838 34.0022 94.1638 33.6062ZM100.59 27.2882C100.662 28.3682 100.608 29.4302 100.428 30.4742C100.248 31.4822 99.7978 32.4002 99.0778 33.2282C98.6098 33.7682 98.1778 34.2902 97.7818 34.7942C97.4218 35.2982 97.0978 35.8742 96.8098 36.5222C96.6298 36.9182 96.4498 37.3142 96.2698 37.7102C96.0898 38.1062 95.8738 38.4842 95.6218 38.8442C95.2978 39.3122 94.9198 39.7082 94.4878 40.0322C94.0558 40.3562 93.6058 40.6622 93.1378 40.9502C92.6698 41.2022 92.2018 41.4542 91.7338 41.7062C91.2658 41.9582 90.8158 42.2822 90.3838 42.6782C90.2398 42.7862 89.9338 43.0022 89.4658 43.3262C88.9978 43.6142 88.7098 43.8302 88.6018 43.9742C87.8458 44.8382 86.9098 45.6482 85.7938 46.4042C84.6778 47.1962 83.5978 47.8622 82.5538 48.4022C81.5098 48.9782 80.5918 49.4462 79.7998 49.8062C79.0438 50.1662 78.6118 50.3642 78.5038 50.4002C79.0078 50.0762 79.5298 49.6622 80.0698 49.1582C80.6098 48.6902 81.1138 48.2222 81.5818 47.7542C82.0498 47.2862 82.4638 46.8362 82.8238 46.4042C83.1838 45.9722 83.4178 45.6482 83.5258 45.4322C83.7418 44.9642 83.9578 44.4422 84.1738 43.8662C84.4258 43.2542 84.4438 42.4802 84.2278 41.5442C84.0478 40.8962 83.8138 40.2842 83.5258 39.7082C83.2378 39.0962 83.0578 38.4482 82.9858 37.7642C82.1938 37.8362 81.5998 37.9802 81.2038 38.1962C80.8078 38.3762 80.6098 38.8802 80.6098 39.7082C80.5738 40.1762 80.4838 40.6982 80.3398 41.2742C80.1958 41.8502 79.8178 42.4082 79.2058 42.9482C78.7018 43.3802 78.3418 43.9382 78.1258 44.6222C77.9458 45.3062 77.8378 45.9722 77.8018 46.6202C77.7658 47.2682 77.7658 47.8262 77.8018 48.2942C77.8738 48.7622 77.8918 48.9962 77.8558 48.9962C77.8198 48.9602 77.8018 48.9422 77.8018 48.9422C77.3338 48.0062 77.0998 47.0522 77.0998 46.0802C77.1358 45.1442 77.2258 44.2442 77.3698 43.3802C77.5138 42.5162 77.6218 41.7062 77.6938 40.9502C77.7658 40.1942 77.6218 39.5462 77.2618 39.0062C76.9378 38.5022 76.5778 38.1962 76.1818 38.0882C75.7858 37.9442 75.3718 37.8722 74.9398 37.8722C74.5438 37.8362 74.1298 37.8182 73.6978 37.8182C73.3018 37.7822 72.9058 37.6382 72.5098 37.3862C72.4018 37.3142 72.4198 37.2962 72.5638 37.3322C72.7078 37.3322 72.9058 37.3142 73.1578 37.2782C73.4098 37.2422 73.6978 37.1882 74.0218 37.1162C74.3458 37.0082 74.6518 36.8102 74.9398 36.5222C75.2638 36.2342 75.5158 36.0542 75.6958 35.9822C75.8758 35.8742 76.0378 35.8022 76.1818 35.7662C76.3618 35.6942 76.5598 35.6402 76.7758 35.6042C76.9918 35.5322 77.2798 35.3702 77.6398 35.1182C77.9638 34.9022 78.2158 34.5422 78.3958 34.0382C78.6118 33.5342 78.7738 33.0842 78.8818 32.6882C79.0258 32.1842 78.9358 31.5002 78.6118 30.6362C78.2878 29.7362 77.7658 28.8722 77.0458 28.0442L76.9918 27.9902C77.0278 27.9902 77.1178 28.0442 77.2618 28.1522C77.4058 28.2242 77.5678 28.3142 77.7478 28.4222C77.9638 28.5302 78.1438 28.6382 78.2878 28.7462C78.4678 28.8542 78.6118 28.9442 78.7198 29.0162L79.3138 29.3402C79.5298 28.0442 79.4038 26.7842 78.9358 25.5602C78.5038 24.3362 77.9998 23.1482 77.4238 21.9962C77.3518 21.8882 77.2978 21.6722 77.2618 21.3482C77.2258 21.0242 77.1898 20.7002 77.1538 20.3762C77.1178 20.0162 77.0998 19.7102 77.0998 19.4582C77.0998 19.1702 77.0998 19.0262 77.0998 19.0262C77.5318 20.2862 77.9998 21.1502 78.5038 21.6182C79.0078 22.0862 79.4038 22.4102 79.6918 22.5902C79.6198 21.6542 79.4758 20.7542 79.2598 19.8902C79.0438 19.0262 78.5758 18.2342 77.8558 17.5142C77.7118 17.3342 77.5858 17.1722 77.4778 17.0282C77.3698 16.8842 77.2798 16.7222 77.2078 16.5422C77.1358 16.3262 77.0998 16.1282 77.0998 15.9482C77.0998 15.7322 77.0638 15.5342 76.9918 15.3542C76.8118 14.9942 76.5598 14.7062 76.2358 14.4902C75.9118 14.2382 75.6058 14.0042 75.3178 13.7882C75.0658 13.5722 74.8138 13.3562 74.5618 13.1402C74.3458 12.9242 74.1478 12.6722 73.9678 12.3842C73.7158 11.9522 73.5898 11.4842 73.5898 10.9802C73.5898 10.4762 73.4818 9.9902 73.2658 9.5222C72.7978 8.4062 72.3478 7.2902 71.9158 6.17419C71.4838 5.05819 70.8358 4.03219 69.9718 3.0962L68.6758 1.5842C68.7478 1.54819 68.9278 1.62019 69.2158 1.8002C69.5038 1.9802 69.8098 2.1962 70.1338 2.44819C70.4578 2.66419 70.7638 2.88019 71.0518 3.0962C71.3038 3.3122 71.4298 3.43819 71.4298 3.47419C71.9698 4.2302 72.5278 4.8962 73.1038 5.47219C73.6798 6.0482 74.2918 6.5882 74.9398 7.0922C75.5878 7.5602 76.2538 8.0102 76.9378 8.44219C77.6578 8.8742 78.4318 9.3422 79.2598 9.8462C80.0878 10.3502 80.9698 10.8542 81.9058 11.3582C82.8778 11.8262 83.8678 12.0962 84.8758 12.1682C85.3798 12.2042 85.9018 12.1142 86.4418 11.8982C87.0178 11.6822 87.4138 11.3042 87.6298 10.7642C87.8098 10.1882 87.6118 9.5222 87.0358 8.7662C86.4598 8.0102 85.3618 7.2002 83.7418 6.3362C83.7058 6.3362 83.6878 6.3362 83.6878 6.3362C83.6878 6.3002 83.7058 6.2822 83.7418 6.2822C83.8138 6.2822 83.9758 6.3182 84.2278 6.3902C84.5158 6.46219 84.8218 6.55219 85.1458 6.66019C85.4698 6.7682 85.7758 6.8762 86.0638 6.98419C86.3878 7.0562 86.6038 7.1282 86.7118 7.20019C86.7478 7.20019 86.7838 7.21819 86.8198 7.25419C88.7638 8.1542 90.5458 9.3062 92.1658 10.7102C93.8218 12.1142 95.2438 13.6802 96.4318 15.4082C97.6198 17.1362 98.5738 19.0082 99.2938 21.0242C100.014 23.0402 100.446 25.1282 100.59 27.2882Z" fill="black"/>
<path d="M75.7244 36.3061C76.6964 38.5021 77.2544 40.7521 77.3984 43.0561C77.4704 44.3161 77.4524 45.5581 77.3444 46.7821C77.2364 48.0061 77.1104 49.2121 76.9664 50.4001C76.9664 50.5441 76.8584 50.9041 76.6424 51.4801C76.4624 52.0561 76.2644 52.6501 76.0484 53.2621C75.8324 53.9101 75.6164 54.4861 75.4004 54.9901C75.2204 55.4941 75.1304 55.7461 75.1304 55.7461C75.3824 54.6301 75.5624 53.4061 75.6704 52.0741C75.8144 50.7781 75.8864 49.4821 75.8864 48.1861C75.8864 46.9261 75.8144 45.7561 75.6704 44.6761C75.5624 43.5601 75.3644 42.6781 75.0764 42.0301C74.6444 40.9141 74.0144 39.9061 73.1864 39.0061C72.7904 38.5741 72.3584 38.2321 71.8904 37.9801C71.4224 37.7281 70.9724 37.4401 70.5404 37.1161C69.8564 36.6121 69.4784 35.8381 69.4064 34.7941C69.3344 34.1101 69.2984 33.4441 69.2984 32.7961C69.2984 32.1121 69.2264 31.4281 69.0824 30.7441C69.0104 30.3841 68.7944 30.1321 68.4344 29.9881C68.1104 29.8441 67.7684 29.7721 67.4084 29.7721C67.1204 29.7721 66.8864 29.8261 66.7064 29.9341C66.6344 29.9701 66.5984 29.9881 66.5984 29.9881L66.5444 30.0421C66.5084 30.0421 66.5264 29.9341 66.5984 29.7181C66.6704 29.5021 66.7784 29.2321 66.9224 28.9081C67.0664 28.5841 67.1924 28.2421 67.3004 27.8821C67.4444 27.4861 67.5164 27.1261 67.5164 26.8021C67.5524 26.1901 67.3904 25.6861 67.0304 25.2901C66.7064 24.8581 66.1664 24.6421 65.4104 24.6421C64.1144 24.6421 62.9264 25.0021 61.8464 25.7221C60.7664 26.4421 59.8304 27.2701 59.0384 28.2061C59.3264 28.2781 59.7944 28.2241 60.4424 28.0441C61.1264 27.8641 61.8824 27.4501 62.7104 26.8021H62.7644C62.8004 26.8021 62.7284 26.9281 62.5484 27.1801C62.3684 27.3961 62.1524 27.6661 61.9004 27.9901C61.6484 28.2781 61.3964 28.5481 61.1444 28.8001C60.9284 29.0521 60.7844 29.1961 60.7124 29.2321C59.7764 29.8081 59.1284 30.5101 58.7684 31.3381C58.4444 32.1301 58.2464 33.0481 58.1744 34.0921C58.1024 34.5241 58.0484 34.9381 58.0124 35.3341C57.9764 35.7301 57.8684 36.0901 57.6884 36.4141C58.3724 36.3421 58.8944 35.9641 59.2544 35.2801C59.6144 34.5961 59.9204 33.8401 60.1724 33.0121C60.4604 32.1481 60.7124 31.3201 60.9284 30.5281C61.1804 29.7361 61.5224 29.1781 61.9544 28.8541C61.9544 28.8541 61.9184 28.9261 61.8464 29.0701C61.7744 29.2141 61.7024 29.4121 61.6304 29.6641C61.5944 29.8801 61.5584 30.1501 61.5224 30.4741C61.5224 30.7621 61.5944 31.0861 61.7384 31.4461C62.0984 32.3821 62.1704 33.3001 61.9544 34.2001C61.7744 35.0641 61.4504 35.9101 60.9824 36.7381C60.5144 37.5661 59.9564 38.3761 59.3084 39.1681C58.6964 39.9601 58.1384 40.7341 57.6344 41.4901C57.1664 42.2101 56.7704 42.9841 56.4464 43.8121C56.1224 44.6041 55.9064 45.4141 55.7984 46.2421C55.7264 47.1061 55.7804 47.9341 55.9604 48.7261C56.1764 49.5541 56.5904 50.3281 57.2024 51.0481C57.3824 51.4801 57.6344 51.9121 57.9584 52.3441C58.2824 52.7761 58.5884 53.1541 58.8764 53.4781C59.2004 53.8381 59.4704 54.1081 59.6864 54.2881C59.9024 54.5041 59.9744 54.6121 59.9024 54.6121C59.1104 54.3961 58.3004 53.8921 57.4724 53.1001C56.6804 52.3441 55.9604 51.4621 55.3124 50.4541C54.6644 49.4461 54.1244 48.4021 53.6924 47.3221C53.2604 46.2781 52.9904 45.3781 52.8824 44.6221C52.8464 44.2981 52.8104 43.9921 52.7744 43.7041C52.7384 43.3801 52.7204 43.0561 52.7204 42.7321C52.7564 42.5521 52.7924 42.3721 52.8284 42.1921C52.8644 42.0121 52.8824 41.8321 52.8824 41.6521C52.9184 41.5801 52.9364 41.4541 52.9364 41.2741C53.0444 40.9141 53.1344 40.5541 53.2064 40.1941C53.2784 39.7981 53.2964 39.4021 53.2604 39.0061C53.2604 38.9341 53.2244 38.8981 53.1524 38.8981C53.0804 38.8981 53.0444 38.9341 53.0444 39.0061C52.9364 39.4381 52.8104 39.7801 52.6664 40.0321C52.6304 39.3121 52.6484 38.6281 52.7204 37.9801C52.7924 37.3321 52.7924 36.7201 52.7204 36.1441C52.6484 35.5321 52.4684 34.9561 52.1804 34.4161C51.8924 33.8761 51.3884 33.3901 50.6684 32.9581C50.6324 32.8861 50.5064 32.6521 50.2904 32.2561C50.1104 31.8601 49.9124 31.4461 49.6964 31.0141C49.5164 30.5461 49.3544 30.1321 49.2104 29.7721C49.0664 29.4121 49.0124 29.2321 49.0484 29.2321C49.3724 29.7001 49.7324 30.0241 50.1284 30.2041C50.5604 30.3841 50.9744 30.4741 51.3704 30.4741C51.8744 30.4741 52.3604 30.3661 52.8284 30.1501C53.2964 29.8981 53.6924 29.5741 54.0164 29.1781C54.3764 28.7461 54.6104 28.3141 54.7184 27.8821C54.8264 27.4501 54.8624 27.0361 54.8264 26.6401C54.8264 26.2081 54.8084 25.8121 54.7724 25.4521C54.7364 25.0921 54.7364 24.7501 54.7724 24.4261C54.7724 24.2461 54.7904 24.0661 54.8264 23.8861C54.8624 23.7061 54.8984 23.5261 54.9344 23.3461C54.8984 23.1661 54.8624 22.9861 54.8264 22.8061C54.8264 22.6261 54.8084 22.4461 54.7724 22.2661C54.7004 21.6541 54.5924 21.0421 54.4484 20.4301C54.3404 19.7821 54.2504 19.1521 54.1784 18.5401C54.1424 18.4681 54.1604 18.4141 54.2324 18.3781C54.3044 18.3061 54.3584 18.3061 54.3944 18.3781L54.6104 19.0801C54.8264 19.4761 55.0604 19.8541 55.3124 20.2141C55.5644 20.5741 55.8884 20.8801 56.2844 21.1321C56.5364 20.4121 56.7884 19.7101 57.0404 19.0261C57.3284 18.3421 57.5444 17.6401 57.6884 16.9201C57.7964 16.1641 57.7964 15.3001 57.6884 14.3281C57.6164 13.3561 57.2204 12.3301 56.5004 11.2501C56.1044 10.6381 55.7264 10.0261 55.3664 9.41406C55.0064 8.76606 54.6464 8.11806 54.2864 7.47006C54.0344 7.00206 53.6924 6.55206 53.2604 6.12006C52.8644 5.68806 52.4144 5.27406 51.9104 4.87806C51.4424 4.44606 50.9564 4.05006 50.4524 3.69006C49.9484 3.33006 49.4804 2.98806 49.0484 2.66406C49.0844 2.66406 49.2824 2.75406 49.6424 2.93406C50.0024 3.07806 50.3804 3.25806 50.7764 3.47406C51.2084 3.65406 51.6044 3.83406 51.9644 4.01406C52.3604 4.19406 52.5944 4.32006 52.6664 4.39206C53.1704 4.82406 53.5124 5.09406 53.6924 5.20206C53.9084 5.27406 54.0884 5.32806 54.2324 5.36406C54.3764 5.40006 54.5384 5.47206 54.7184 5.58006C54.9344 5.68806 55.2764 5.97606 55.7444 6.44406C56.0684 6.73206 56.4644 7.03806 56.9324 7.36206C57.4364 7.68606 57.9584 7.99206 58.4984 8.28006C59.0744 8.53206 59.6684 8.74806 60.2804 8.92806C60.8924 9.07206 61.4684 9.14406 62.0084 9.14406C62.4404 9.14406 62.8544 9.09006 63.2504 8.98206C63.6464 8.87406 63.9884 8.67606 64.2764 8.38806C64.3484 8.31606 64.4924 8.19006 64.7084 8.01006C64.9244 7.79406 65.1404 7.59606 65.3564 7.41606C65.6084 7.20006 65.8244 7.02006 66.0044 6.87606C66.2204 6.69606 66.3464 6.60606 66.3824 6.60606V6.66006C66.0584 7.23606 65.8604 7.75806 65.7884 8.22606C65.7524 8.65806 65.7884 9.03606 65.8964 9.36006C66.0044 9.64806 66.1664 9.86406 66.3824 10.0081C66.5984 10.1161 66.8144 10.1521 67.0304 10.1161C67.3544 10.0441 67.6604 9.97206 67.9484 9.90006C68.2724 9.79206 68.5964 9.70206 68.9204 9.63006C69.3524 9.55806 69.7664 9.54006 70.1624 9.57606C70.5944 9.57606 70.9904 9.70206 71.3504 9.95406C71.5664 10.0981 71.8184 10.3321 72.1064 10.6561C72.4304 10.9801 72.5564 11.1421 72.4844 11.1421C72.0164 10.8541 71.5664 10.7101 71.1344 10.7101C70.7024 10.7101 70.3244 10.8361 70.0004 11.0881C69.6764 11.3041 69.3884 11.5921 69.1364 11.9521C68.9204 12.2761 68.7584 12.6361 68.6504 13.0321C68.5424 13.3921 68.5064 13.7341 68.5424 14.0581C68.6144 14.8861 68.7224 15.7321 68.8664 16.5961C69.0464 17.4601 69.3164 18.2521 69.6764 18.9721C70.2164 20.0881 70.7744 21.1861 71.3504 22.2661C71.9624 23.3461 72.3584 24.4801 72.5384 25.6681C72.8624 25.5601 73.0604 25.1821 73.1324 24.5341C73.2404 23.8861 73.3124 23.1661 73.3484 22.3741C73.3844 21.5821 73.4564 20.8441 73.5644 20.1601C73.6724 19.4401 73.8884 18.9541 74.2124 18.7021C74.3204 18.6301 74.3384 18.6661 74.2664 18.8101C74.2304 18.9541 74.1764 19.2061 74.1044 19.5661C74.0684 19.8901 74.0504 20.2861 74.0504 20.7541C74.0504 21.2221 74.1584 21.7441 74.3744 22.3201C74.8064 23.4721 74.9684 24.6241 74.8604 25.7761C74.7524 26.9281 74.6624 28.0981 74.5904 29.2861C74.5184 29.8981 74.4824 30.5101 74.4824 31.1221C74.4824 31.6981 74.5184 32.2921 74.5904 32.9041C74.6624 33.5161 74.8064 34.1101 75.0224 34.6861C75.2384 35.2261 75.4724 35.7661 75.7244 36.3061ZM65.2484 21.0241C65.2484 20.5561 65.1764 20.0521 65.0324 19.5121C64.8884 18.9721 64.7264 18.4141 64.5464 17.8381C64.3664 17.2621 64.2044 16.6681 64.0604 16.0561C63.9524 15.4081 63.9164 14.7421 63.9524 14.0581L62.4404 17.2441C62.2604 17.5681 62.1704 17.8741 62.1704 18.1621C62.2064 18.4141 62.1344 18.7201 61.9544 19.0801C61.7744 19.6561 61.7204 20.0701 61.7924 20.3221C61.8644 20.5381 62.0444 20.7361 62.3324 20.9161C61.5764 20.9161 61.1444 21.1321 61.0364 21.5641C60.9644 21.9961 60.9644 22.4281 61.0364 22.8601C62.2604 21.7441 63.6644 21.1321 65.2484 21.0241Z" fill="black"/>
<path d="M55.7423 6.3902C54.7343 7.2542 53.6183 8.1722 52.3943 9.1442C51.2063 10.0802 50.0723 11.1242 48.9923 12.2762C48.5243 12.7802 48.0203 13.2122 47.4803 13.5722C46.9763 13.8962 46.4543 14.2562 45.9143 14.6522C45.5543 14.9042 45.1943 15.2822 44.8343 15.7862C44.4743 16.2902 44.1683 16.8662 43.9163 17.5142C43.7003 18.1262 43.5203 18.7922 43.3763 19.5122C43.2683 20.2322 43.2683 20.9342 43.3763 21.6182C43.4123 21.7982 43.3583 21.7442 43.2143 21.4562C43.0703 21.1682 42.9803 20.9342 42.9443 20.7542C42.8363 20.2142 42.7103 19.6922 42.5663 19.1882C42.4223 18.6482 42.2963 18.1262 42.1883 17.6222C42.1163 17.1182 42.0983 16.6142 42.1343 16.1102C42.1703 15.6062 42.2963 15.1022 42.5123 14.5982C42.1163 14.5982 41.7203 14.5802 41.3243 14.5442C40.9283 14.4722 40.5143 14.4182 40.0823 14.3822C39.9023 14.3822 39.5423 14.4542 39.0023 14.5982C38.4983 14.7422 37.9403 14.8142 37.3283 14.8142C36.6083 14.8142 36.0323 14.6522 35.6003 14.3282C35.6723 14.4362 35.7443 14.5262 35.8163 14.5982C35.8883 14.6702 35.9783 14.7602 36.0863 14.8682C36.1943 14.9762 36.3203 15.0662 36.4643 15.1382C36.9323 15.3902 37.1123 15.6422 37.0043 15.8942C36.8963 16.1462 36.8603 16.4342 36.8963 16.7582C36.9683 17.2622 37.0403 17.7662 37.1123 18.2702C37.1843 18.7382 37.2203 19.2242 37.2203 19.7282C37.2203 20.1962 37.2023 20.6642 37.1663 21.1322C37.1303 21.5642 37.1483 22.0142 37.2203 22.4822C37.2923 22.7702 37.2923 23.0402 37.2203 23.2922C37.1483 23.5082 37.0403 23.7062 36.8963 23.8862C36.7883 24.0302 36.6803 24.1742 36.5723 24.3182C36.5003 24.4622 36.4643 24.5882 36.4643 24.6962C36.7163 24.4442 37.0763 24.2102 37.5443 23.9942C38.0483 23.7782 38.5703 23.5982 39.1103 23.4542C39.6503 23.2742 40.1903 23.1302 40.7303 23.0222C41.3063 22.9142 41.7743 22.8602 42.1343 22.8602C43.5383 22.8602 44.7083 23.2022 45.6443 23.8862C46.5803 24.5702 47.4983 25.3982 48.3983 26.3702C48.5423 26.4782 48.7223 26.6942 48.9383 27.0182C49.1903 27.3062 49.2983 27.4502 49.2623 27.4502C48.9383 27.1622 48.5423 26.8562 48.0743 26.5322C47.6063 26.2082 47.1023 25.9022 46.5623 25.6142C46.0223 25.3262 45.4823 25.0922 44.9423 24.9122C44.4023 24.7322 43.9163 24.6422 43.4843 24.6422C42.9443 24.6422 42.4043 24.7862 41.8643 25.0742C41.3243 25.3622 41.0183 25.9022 40.9463 26.6942C40.5863 26.6222 40.3343 26.5862 40.1903 26.5862C39.6143 26.5862 39.1463 26.7662 38.7863 27.1262C38.4623 27.4862 38.2103 27.9362 38.0303 28.4762C37.8503 29.0162 37.7423 29.5922 37.7063 30.2042C37.6703 30.8162 37.6703 31.3922 37.7063 31.9322C37.7423 32.2562 37.8143 32.5442 37.9223 32.7962C38.0303 33.0482 38.1383 33.3002 38.2463 33.5522C38.3543 33.8042 38.4443 34.0562 38.5163 34.3082C38.6243 34.5602 38.6603 34.8302 38.6243 35.1182C38.6243 35.4062 38.6963 35.6942 38.8403 35.9822C39.0203 36.2702 39.2363 36.5402 39.4883 36.7922C39.7403 37.0082 40.0103 37.2062 40.2983 37.3862C40.6223 37.5662 40.8923 37.6922 41.1083 37.7642C41.2883 37.8002 41.4503 37.8362 41.5943 37.8722C41.7383 37.9082 41.9003 37.9262 42.0803 37.9262C42.4403 37.9262 42.7643 37.8362 43.0523 37.6562C43.3403 37.4402 43.4843 37.2602 43.4843 37.1162C43.5203 36.9722 43.4663 36.8462 43.3223 36.7382C43.2143 36.6302 43.0523 36.5582 42.8363 36.5222C42.6563 36.4502 42.4943 36.3962 42.3503 36.3602C41.9543 36.2162 41.6123 36.1082 41.3243 36.0362C41.0363 35.9282 40.6943 35.7482 40.2983 35.4962C40.0103 35.3162 39.7583 35.0462 39.5423 34.6862C39.3263 34.3262 39.2363 34.1462 39.2723 34.1462C40.0643 34.6142 40.8023 34.8482 41.4863 34.8482C41.9543 34.8482 42.3863 34.7762 42.7823 34.6322C43.1783 34.4522 43.5383 34.2182 43.8623 33.9302C44.3303 33.5342 44.7623 33.1202 45.1583 32.6882C45.5543 32.2202 45.9863 31.7882 46.4543 31.3922C47.0663 30.8522 47.7683 30.3122 48.5603 29.7722C49.3523 29.1962 50.1623 28.9082 50.9903 28.9082C51.3503 28.9082 51.6923 28.9622 52.0163 29.0702C52.0883 29.0702 52.2143 29.1242 52.3943 29.2322C52.5743 29.3042 52.7543 29.3762 52.9343 29.4482C53.1143 29.5202 53.2583 29.5922 53.3663 29.6642C53.5103 29.7362 53.5643 29.7722 53.5283 29.7722C53.3123 29.7362 53.0963 29.7182 52.8803 29.7182C52.7003 29.6822 52.5203 29.6642 52.3403 29.6642C51.3323 29.6642 50.5223 29.8982 49.9103 30.3662C49.2983 30.8342 48.7943 31.3202 48.3983 31.8242C47.7863 32.5442 47.4083 33.3182 47.2643 34.1462C47.1203 34.9742 47.0843 35.8562 47.1563 36.7922C47.1923 37.3682 47.2823 37.8542 47.4263 38.2502C47.5703 38.6102 47.7323 38.9342 47.9123 39.2222C48.0923 39.5102 48.2723 39.7802 48.4523 40.0322C48.6683 40.2482 48.8483 40.4822 48.9923 40.7342C49.1003 40.8782 49.2263 41.0402 49.3703 41.2202C49.5143 41.4002 49.6583 41.6522 49.8023 41.9762C49.9463 42.2642 50.0903 42.6602 50.2343 43.1642C50.3783 43.6322 50.5043 44.2622 50.6123 45.0542C50.6123 45.0542 50.5763 44.9822 50.5043 44.8382C50.4323 44.6582 50.3063 44.4422 50.1263 44.1902C49.9823 43.9382 49.7843 43.6862 49.5323 43.4342C49.2803 43.1822 48.9743 42.9662 48.6143 42.7862C48.3623 42.6422 47.9843 42.4802 47.4803 42.3002C46.9763 42.0842 46.5263 42.0122 46.1303 42.0842C45.7343 42.1202 45.3743 42.2102 45.0503 42.3542C44.7623 42.4982 44.3663 42.6782 43.8623 42.8942C43.1423 43.2182 42.5483 43.6682 42.0803 44.2442C41.6123 44.8202 41.1983 45.4502 40.8383 46.1342C40.5143 46.8542 40.1903 47.5922 39.8663 48.3482C39.5423 49.1402 39.1463 49.8782 38.6783 50.5622C38.2463 51.2822 37.6883 51.9302 37.0043 52.5062C36.3203 53.0822 35.4383 53.5322 34.3583 53.8562C35.7623 52.8482 36.7523 51.8042 37.3283 50.7242C37.9043 49.6442 38.2283 48.6182 38.3003 47.6462C38.4083 46.6742 38.3363 45.7922 38.0843 45.0002C37.8323 44.2442 37.5803 43.6682 37.3283 43.2722C36.7883 42.4082 36.0503 41.8682 35.1143 41.6522C34.1783 41.4002 33.2423 41.2742 32.3063 41.2742C31.7663 41.2742 31.1723 41.2562 30.5243 41.2202C29.9123 41.1482 29.4083 40.9862 29.0123 40.7342C28.8683 40.6622 29.0123 40.6442 29.4443 40.6802C29.9123 40.6802 30.3623 40.6622 30.7943 40.6262C31.1903 40.5902 31.5683 40.4642 31.9283 40.2482C32.2883 39.9962 32.5943 39.6902 32.8463 39.3302C32.1983 38.8262 31.5503 38.2862 30.9023 37.7102C30.2903 37.0982 29.6783 36.4862 29.0663 35.8742C28.4903 35.2982 28.1483 34.7222 28.0403 34.1462C27.9323 33.5342 27.8963 32.8502 27.9323 32.0942C27.9323 32.0222 27.9503 31.8962 27.9863 31.7162C28.0583 31.5002 28.1123 31.3022 28.1483 31.1222C28.2203 30.9422 28.2743 30.7802 28.3103 30.6362C28.3823 30.4922 28.4183 30.4202 28.4183 30.4202V30.4742C28.3103 31.3382 28.3463 32.0402 28.5263 32.5802C28.7423 33.1202 29.0123 33.5522 29.3363 33.8762C29.6963 34.1642 30.0743 34.3622 30.4703 34.4702C30.8663 34.5782 31.2083 34.6142 31.4963 34.5782C31.8563 34.5422 32.0903 34.4342 32.1983 34.2542C32.3063 34.0382 32.3423 33.7862 32.3063 33.4982C32.2703 33.2102 32.2163 32.9042 32.1443 32.5802C32.0723 32.2562 32.0183 31.9862 31.9823 31.7702C31.9463 31.1582 32.0003 30.5642 32.1443 29.9882C32.2883 29.3762 32.2703 28.7822 32.0903 28.2062C31.9463 27.5942 31.7123 27.2882 31.3883 27.2882C30.9923 27.2882 30.5963 27.6482 30.2003 28.3682C29.8043 29.0882 29.4983 29.9522 29.2823 30.9602C29.2103 30.9602 29.1383 30.7442 29.0663 30.3122C29.0303 29.8442 29.0483 29.5382 29.1203 29.3942C29.3363 28.8182 29.4083 28.2422 29.3363 27.6662C29.3003 27.0542 29.4083 26.4782 29.6603 25.9382C29.8763 25.5422 30.1283 25.2182 30.4163 24.9662C30.7403 24.6782 30.9743 24.3362 31.1183 23.9402C31.3343 23.3282 31.3883 22.7342 31.2803 22.1582C31.1723 21.5822 30.9743 21.0242 30.6863 20.4842C30.4343 19.9082 30.1283 19.3682 29.7683 18.8642C29.4083 18.3242 29.0843 17.8382 28.7963 17.4062C28.7603 17.3342 28.7063 17.2262 28.6343 17.0822C28.5623 16.9382 28.4903 16.7942 28.4183 16.6502C28.3823 16.4702 28.3283 16.3262 28.2563 16.2182C28.2203 16.0742 28.2203 16.0022 28.2563 16.0022C28.5443 16.3262 28.7603 16.5782 28.9043 16.7582C29.0843 16.9382 29.2463 17.0822 29.3903 17.1902C29.5703 17.2622 29.7683 17.3162 29.9843 17.3522C30.2003 17.3882 30.4883 17.4242 30.8483 17.4602C30.9203 17.1002 30.9743 16.7582 31.0103 16.4342C31.0463 16.0742 31.1003 15.7322 31.1723 15.4082C31.0283 15.3362 31.0103 15.2102 31.1183 15.0302C31.0823 14.9942 31.0463 14.8502 31.0103 14.5982C31.0103 14.3102 31.0103 14.1482 31.0103 14.1122C31.0103 13.4282 30.7943 12.6542 30.3623 11.7902C29.9303 10.9262 29.3363 10.0802 28.5803 9.2522C27.8603 8.4242 27.0143 7.6682 26.0423 6.9842C25.1063 6.3002 24.1163 5.7962 23.0723 5.4722C23.7563 5.3642 24.4943 5.4542 25.2863 5.7422C26.1143 5.9942 26.8883 6.3182 27.6083 6.7142C28.3643 7.0742 29.0303 7.4522 29.6063 7.8482C30.2183 8.2082 30.6503 8.4602 30.9023 8.6042C31.5503 9.0002 32.1803 9.4142 32.7923 9.8462C33.4043 10.2782 34.0883 10.4582 34.8443 10.3862C35.4923 10.2782 36.1223 10.1342 36.7343 9.9542C37.3823 9.7382 38.0483 9.6662 38.7323 9.7382C39.0563 9.7382 39.3623 9.8102 39.6503 9.9542C39.9743 10.0622 40.2983 10.1702 40.6223 10.2782C40.8743 10.3862 41.2163 10.5842 41.6483 10.8722C42.0803 11.1602 42.4403 11.3042 42.7283 11.3042C42.9803 11.3042 43.1063 11.1242 43.1063 10.7642C43.1063 10.6562 43.0163 10.4942 42.8363 10.2782C42.6563 10.0262 42.6023 9.9362 42.6743 10.0082C43.1063 10.3322 43.6283 10.4942 44.2403 10.4942C45.3563 10.4942 46.4723 10.2242 47.5883 9.6842C48.7403 9.1082 49.7843 8.5502 50.7203 8.0102C51.2963 7.9022 51.8903 7.7222 52.5023 7.4702C53.1143 7.1822 53.6903 6.8762 54.2303 6.5522C54.8063 6.2282 55.3103 5.8862 55.7423 5.5262C56.1743 5.1662 56.4623 4.8422 56.6063 4.5542C56.5343 4.8422 56.4443 5.0942 56.3363 5.3102C56.1563 5.8142 55.9583 6.1742 55.7423 6.3902Z" fill="black"/>
<path d="M30.24 43.8121C30.42 45.0721 30.456 46.3141 30.348 47.5381C30.276 48.7981 30.096 50.0401 29.808 51.2641C29.628 52.0201 29.376 52.6681 29.052 53.2081C28.728 53.7481 28.53 54.0181 28.458 54.0181V53.9641C28.962 52.5241 29.196 51.1921 29.16 49.9681C29.16 48.7801 29.016 47.6821 28.728 46.6741C28.44 45.6661 28.062 44.7481 27.594 43.9201C27.126 43.0561 26.676 42.2641 26.244 41.5441C25.344 40.1041 24.156 38.8441 22.68 37.7641C22.284 37.4761 21.96 37.1161 21.708 36.6841C21.492 36.2521 21.132 35.9821 20.628 35.8741C20.196 35.7661 19.854 35.6941 19.602 35.6581C19.386 35.5861 19.08 35.4421 18.684 35.2261C18.504 35.1181 18.252 35.1181 17.928 35.2261C17.604 35.3341 17.478 35.3521 17.55 35.2801C17.91 34.9561 18.324 34.7761 18.792 34.7401C19.044 34.7041 19.296 34.7041 19.548 34.7401C19.8 34.7401 20.016 34.6501 20.196 34.4701C20.448 34.2181 20.556 33.8581 20.52 33.3901C20.484 32.9221 20.43 32.5441 20.358 32.2561C20.286 31.9681 20.178 31.6261 20.034 31.2301C19.89 30.7981 19.62 30.5821 19.224 30.5821C19.044 30.5821 18.828 30.6541 18.576 30.7981C18.36 30.9061 18.09 31.1221 17.766 31.4461C17.73 31.4461 17.73 31.3921 17.766 31.2841C17.838 31.1401 17.91 30.9961 17.982 30.8521C18.054 30.6721 18.126 30.5101 18.198 30.3661C18.27 30.1861 18.324 30.0781 18.36 30.0421C18.72 29.6101 19.044 29.2321 19.332 28.9081C19.656 28.5481 19.89 28.0981 20.034 27.5581C20.322 26.5141 20.412 25.8121 20.304 25.4521C20.232 25.0921 20.052 24.9121 19.764 24.9121C19.548 24.9121 19.296 24.9841 19.008 25.1281C18.756 25.2721 18.486 25.4521 18.198 25.6681C17.946 25.8481 17.712 26.0281 17.496 26.2081C17.316 26.3881 17.172 26.5321 17.064 26.6401C16.524 27.1441 16.164 27.5941 15.984 27.9901C15.804 28.3501 15.534 28.8901 15.174 29.6101C14.994 30.0061 14.742 30.2941 14.418 30.4741C14.13 30.6541 13.95 30.9781 13.878 31.4461C13.878 31.6981 13.878 31.9321 13.878 32.1481C13.878 32.3281 13.842 32.5441 13.77 32.7961C13.698 33.0121 13.5 33.3361 13.176 33.7681C12.852 34.2001 12.546 34.6681 12.258 35.1721C12.006 35.6401 11.844 36.1081 11.772 36.5761C11.7 37.0441 11.898 37.4221 12.366 37.7101C12.798 37.7821 13.14 37.7281 13.392 37.5481C13.68 37.3321 13.896 37.0801 14.04 36.7921C14.22 36.5041 14.346 36.2341 14.418 35.9821C14.526 35.6941 14.598 35.4961 14.634 35.3881C14.67 35.2801 14.67 35.3161 14.634 35.4961C14.634 35.6401 14.634 36.0181 14.634 36.6301C14.634 37.7821 14.436 38.7721 14.04 39.6001C13.68 40.4281 13.086 41.1661 12.258 41.8141C11.718 42.2101 11.304 42.6421 11.016 43.1101C10.764 43.5781 10.566 44.0101 10.422 44.4061C10.314 44.8021 10.242 45.1261 10.206 45.3781C10.206 45.6301 10.188 45.7561 10.152 45.7561C10.116 45.7201 10.08 45.7021 10.044 45.7021C9.828 45.7021 9.45 46.0801 8.91 46.8361C8.406 47.5921 7.722 48.4201 6.858 49.3201C6.03 50.2561 5.04 51.1021 3.888 51.8581C2.772 52.6141 1.476 52.9921 0 52.9921C1.332 52.4521 2.43 51.7681 3.294 50.9401C4.194 50.1121 4.914 49.2301 5.454 48.2941C6.03 47.3941 6.444 46.4761 6.696 45.5401C6.984 44.6041 7.182 43.7401 7.29 42.9481C7.398 42.1201 7.434 41.4181 7.398 40.8421C7.398 40.2661 7.38 39.8701 7.344 39.6541C7.236 39.1141 7.074 38.6101 6.858 38.1421C6.642 37.6381 6.408 37.1341 6.156 36.6301C5.904 36.1981 5.76 35.7301 5.724 35.2261C5.724 34.7221 5.706 34.2361 5.67 33.7681C5.634 33.2641 5.508 32.7781 5.292 32.3101C5.112 31.8421 4.734 31.4281 4.158 31.0681C3.834 30.8521 3.618 30.7081 3.51 30.6361C3.402 30.5641 3.384 30.5281 3.456 30.5281C3.564 30.5281 3.816 30.6181 4.212 30.7981C4.644 30.9421 4.896 31.0501 4.968 31.1221C5.544 31.5901 5.994 32.0941 6.318 32.6341C6.678 33.1381 7.2 33.5521 7.884 33.8761C8.1 33.9841 8.262 34.0381 8.37 34.0381C8.622 34.0381 8.784 33.9301 8.856 33.7141C8.964 33.4621 9.018 33.1741 9.018 32.8501C9.018 32.5261 8.982 32.2201 8.91 31.9321C8.874 31.6081 8.838 31.3741 8.802 31.2301C8.766 30.9421 8.766 30.6721 8.802 30.4201C8.838 30.1681 8.838 29.9161 8.802 29.6641C8.766 29.4481 8.64 29.2861 8.424 29.1781C8.244 29.0701 8.01 28.9621 7.722 28.8541C7.47 28.7461 7.218 28.6381 6.966 28.5301C6.714 28.4221 6.534 28.2781 6.426 28.0981C6.354 27.9901 6.408 27.9901 6.588 28.0981C6.768 28.2061 7.056 28.1521 7.452 27.9361C7.74 27.7561 7.974 27.4861 8.154 27.1261C8.334 26.7661 8.46 26.3881 8.532 25.9921C8.604 25.5961 8.64 25.2001 8.64 24.8041C8.676 24.4081 8.658 24.0841 8.586 23.8321C8.442 23.1121 8.262 22.4281 8.046 21.7801C7.866 21.0961 7.884 20.4121 8.1 19.7281C7.884 19.6561 7.704 19.6201 7.56 19.6201C7.272 19.6201 6.984 19.7101 6.696 19.8901C6.444 20.0341 6.21 20.3221 5.994 20.7541C5.922 20.8261 5.922 20.7181 5.994 20.4301C6.066 20.1061 6.174 19.8181 6.318 19.5661C6.462 19.3501 6.642 19.0441 6.858 18.6481C7.11 18.2161 7.218 17.6401 7.182 16.9201C7.182 16.2001 6.948 15.3361 6.48 14.3281C6.048 13.3201 5.184 12.1141 3.888 10.7101C3.492 10.2781 3.222 9.88206 3.078 9.52206C2.934 9.16206 2.79 8.76606 2.646 8.33406C2.502 7.90206 2.286 7.43406 1.998 6.93006C1.746 6.42606 1.278 5.83206 0.594 5.14806C1.17 5.40006 1.674 5.72406 2.106 6.12006C2.574 6.51606 2.97 6.91206 3.294 7.30806C3.654 7.66806 3.942 8.02806 4.158 8.38806C4.41 8.71206 4.608 8.94606 4.752 9.09006C5.4 9.81006 6.21 10.4401 7.182 10.9801C8.154 11.4841 9.126 11.7361 10.098 11.7361C11.034 11.7361 12.042 11.5921 13.122 11.3041C14.202 11.0161 15.102 10.7281 15.822 10.4401C15.822 10.4401 15.768 10.4761 15.66 10.5481C15.552 10.6201 15.426 10.7101 15.282 10.8181C15.138 10.9261 14.994 11.0341 14.85 11.1421C14.706 11.2501 14.598 11.3401 14.526 11.4121C14.13 11.7361 13.86 12.0781 13.716 12.4381C13.608 12.7621 13.554 13.1221 13.554 13.5181C13.554 13.8781 13.59 14.2561 13.662 14.6521C13.734 15.0121 13.788 15.4081 13.824 15.8401C13.824 16.2001 13.806 16.5601 13.77 16.9201C13.734 17.2441 13.68 17.5681 13.608 17.8921C13.572 18.1081 13.518 18.3781 13.446 18.7021C13.374 18.9901 13.374 19.2421 13.446 19.4581C13.662 19.7461 13.806 19.9441 13.878 20.0521C13.95 20.0521 13.986 20.0701 13.986 20.1061C14.022 20.1061 14.076 20.1061 14.148 20.1061C14.544 20.4661 14.652 20.8441 14.472 21.2401C14.328 21.6001 14.202 22.0141 14.094 22.4821C13.986 22.9501 13.968 23.4181 14.04 23.8861C14.148 24.3541 14.184 24.8221 14.148 25.2901C14.436 25.0741 14.634 24.9301 14.742 24.8581C15.102 24.5701 15.336 24.3361 15.444 24.1561C15.552 23.9761 15.822 23.7781 16.254 23.5621C16.614 23.3821 17.136 23.1301 17.82 22.8061C18.504 22.4461 19.134 22.2661 19.71 22.2661C19.998 22.2661 20.214 22.3021 20.358 22.3741C20.43 22.0861 20.358 21.8521 20.142 21.6721C19.962 21.4561 19.944 21.1321 20.088 20.7001C20.16 20.4121 20.232 20.1421 20.304 19.8901C20.412 19.6381 20.43 19.4401 20.358 19.2961C20.322 19.1161 20.178 19.0081 19.926 18.9721C19.71 18.9001 19.314 18.9181 18.738 19.0261C18.558 19.0621 18.486 19.0621 18.522 19.0261C18.558 18.9901 18.63 18.9001 18.738 18.7561C18.882 18.6121 19.044 18.4141 19.224 18.1621C19.404 17.8741 19.548 17.5501 19.656 17.1901C19.764 16.7941 19.656 16.3981 19.332 16.0021C19.008 15.5701 18.594 15.3361 18.09 15.3001C17.874 15.3001 17.658 15.3181 17.442 15.3541C17.262 15.3901 17.064 15.4981 16.848 15.6781C16.632 15.8221 16.398 16.0741 16.146 16.4341C15.894 16.7581 15.624 17.2261 15.336 17.8381C15.336 17.8381 15.336 17.7841 15.336 17.6761C15.372 17.5321 15.39 17.3701 15.39 17.1901C15.426 17.0101 15.462 16.8301 15.498 16.6501C15.534 16.4701 15.57 16.3441 15.606 16.2721C15.786 15.5881 16.056 15.0661 16.416 14.7061C16.776 14.3461 17.172 14.0221 17.604 13.7341C18.036 13.4461 18.45 13.1581 18.846 12.8701C19.278 12.5461 19.638 12.0961 19.926 11.5201C20.106 11.1241 20.304 10.8361 20.52 10.6561C20.736 10.4761 20.934 10.3321 21.114 10.2241C21.294 10.0801 21.456 9.91806 21.6 9.73806C21.744 9.52206 21.834 9.19806 21.87 8.76606C21.942 8.04606 22.086 7.45206 22.302 6.98406C22.518 6.48006 22.734 5.99406 22.95 5.52606C23.058 5.20206 23.292 4.87806 23.652 4.55406C24.048 4.19406 24.444 3.88806 24.84 3.63606C25.236 3.34806 25.596 3.11406 25.92 2.93406C26.244 2.75406 26.406 2.66406 26.406 2.66406C25.29 3.38406 24.624 4.28406 24.408 5.36406C24.192 6.40806 24.336 7.29006 24.84 8.01006C25.056 8.29806 25.182 8.55006 25.218 8.76606C25.254 8.98206 25.272 9.19806 25.272 9.41406C25.308 9.63006 25.344 9.86406 25.38 10.1161C25.416 10.3321 25.524 10.5841 25.704 10.8721C25.956 11.2681 26.298 11.6281 26.73 11.9521C27.162 12.2401 27.414 12.5821 27.486 12.9781C27.738 14.2741 27.594 15.4801 27.054 16.5961C26.658 17.4961 26.514 18.1981 26.622 18.7021C26.73 19.1701 26.766 19.4041 26.73 19.4041L26.676 19.3501C26.46 19.0621 26.334 18.6121 26.298 18.0001C26.298 17.3521 26.28 16.7041 26.244 16.0561C26.244 15.4081 26.172 14.8681 26.028 14.4361C25.92 13.9681 25.65 13.7881 25.218 13.8961C24.786 14.0041 24.516 14.2921 24.408 14.7601C24.336 15.2281 24.336 15.7681 24.408 16.3801C24.516 16.9561 24.66 17.5321 24.84 18.1081C25.02 18.6481 25.146 19.0621 25.218 19.3501C25.398 20.1781 25.74 20.9341 26.244 21.6181C26.748 22.2661 27.126 23.0041 27.378 23.8321C27.522 24.2641 27.558 24.6601 27.486 25.0201C27.45 25.3801 27.36 25.7581 27.216 26.1541C27.108 26.5141 26.982 26.9281 26.838 27.3961C26.694 27.8281 26.586 28.3501 26.514 28.9621C26.442 29.3941 26.478 29.7901 26.622 30.1501C26.802 30.4741 26.856 30.6361 26.784 30.6361L26.73 30.5821C26.442 30.2941 26.244 29.9881 26.136 29.6641C26.064 29.3041 26.028 28.9621 26.028 28.6381C26.028 28.3141 26.046 28.0081 26.082 27.7201C26.118 27.4321 26.118 27.2161 26.082 27.0721C26.082 26.9641 26.082 26.8021 26.082 26.5861C26.082 26.3701 26.046 26.1541 25.974 25.9381C25.938 25.7221 25.866 25.5241 25.758 25.3441C25.686 25.1641 25.56 25.0561 25.38 25.0201C25.128 25.0201 24.948 25.2361 24.84 25.6681C24.768 26.1001 24.732 26.6041 24.732 27.1801C24.732 27.7201 24.75 28.2421 24.786 28.7461C24.858 29.2501 24.894 29.5741 24.894 29.7181C24.93 30.4021 24.948 31.0501 24.948 31.6621C24.984 32.2381 25.2 32.8321 25.596 33.4441C25.884 33.8401 26.208 34.2361 26.568 34.6321C26.928 34.9921 27.252 35.3881 27.54 35.8201C27.828 36.2161 28.116 36.7561 28.404 37.4401C28.728 38.1241 28.998 38.8621 29.214 39.6541C29.466 40.4461 29.682 41.2201 29.862 41.9761C30.042 42.6961 30.168 43.3081 30.24 43.8121Z" fill="black"/>
</svg>
