<svg width="33" height="21" viewBox="0 0 33 21" fill="none" xmlns="http://www.w3.org/2000/svg">
<path fill-rule="evenodd" clip-rule="evenodd" d="M1.59309 5.78248C0.639905 5.78248 0 5.10925 0 4.11606C0 2.91957 0.939856 2.15302 2.43297 2.15302C2.64627 2.15302 2.8329 2.16469 2.98622 2.19801V2.0597C2.98622 1.3798 2.73626 1.05318 2.22968 1.05318C1.82972 1.05318 1.56643 1.27483 1.44644 1.69976C1.41313 1.8214 1.34646 1.87973 1.23314 1.85973L0.306618 1.69976C0.1933 1.67976 0.133319 1.58644 0.166632 1.4598C0.413269 0.521603 1.18649 0 2.32632 0C3.67946 0 4.39935 0.746556 4.39935 2.13802V5.48919C4.39935 5.58918 4.32601 5.6625 4.22603 5.6625H3.34618C3.24285 5.6625 3.18287 5.59584 3.15952 5.48919L3.02622 4.86261H2.97289C2.73292 5.44086 2.253 5.78248 1.59309 5.78248ZM2.13302 4.7293C2.68627 4.7293 2.98622 4.22271 2.98622 3.29619V2.94457C2.8729 2.92458 2.75292 2.91125 2.63293 2.91125C1.90638 2.91125 1.45311 3.31619 1.45311 3.95609C1.45311 4.42934 1.71975 4.7293 2.13302 4.7293ZM22.5522 6.71949C23.0055 6.71949 23.3788 7.02613 23.3788 7.54603C23.3788 8.05263 23.0055 8.37259 22.5522 8.37259C22.099 8.37259 21.7257 8.05263 21.7257 7.54603C21.7257 7.02613 22.099 6.71949 22.5522 6.71949ZM21.8457 14.1784V8.98248C21.8457 8.88249 21.919 8.80918 22.019 8.80918H23.0855C23.1855 8.80918 23.2588 8.88249 23.2588 8.98248V14.1784C23.2588 14.2784 23.1855 14.3517 23.0855 14.3517H22.019C21.919 14.3517 21.8457 14.2784 21.8457 14.1784ZM6.58318 8.68951C7.24309 8.68951 7.72967 9.05779 7.98298 9.68937H8.03631C8.42958 9.01781 8.9095 8.68951 9.51609 8.68951C10.5159 8.68951 11.1225 9.52941 11.1225 10.8825V14.1787C11.1225 14.2787 11.0492 14.352 10.9492 14.352H9.88269C9.78271 14.352 9.70939 14.2787 9.70939 14.1787V10.9892C9.70939 10.3426 9.45609 9.98265 8.98284 9.98265C8.46292 9.98265 8.18961 10.4026 8.18961 11.1758V14.1787C8.18961 14.2787 8.1163 14.352 8.01631 14.352H6.9498C6.84982 14.352 6.77648 14.2787 6.77648 14.1787V10.9892C6.77648 10.3426 6.5232 9.98265 6.04993 9.98265C5.53001 9.98265 5.25673 10.4026 5.25673 11.1758V14.1787C5.25673 14.2787 5.18339 14.352 5.0834 14.352H4.0169C3.91691 14.352 3.8436 14.2787 3.8436 14.1787V8.9828C3.8436 8.88281 3.91691 8.8095 4.0169 8.8095H4.89677C4.99676 8.8095 5.06174 8.87617 5.0834 8.9828L5.21672 9.63603H5.27004C5.51001 9.02946 5.96995 8.68951 6.58318 8.68951ZM16.3008 8.98265V14.1786C16.3008 14.2786 16.2275 14.3519 16.1275 14.3519H15.2476C15.141 14.3519 15.0843 14.2852 15.061 14.1786L14.9277 13.5253H14.8744C14.6344 14.1452 14.1678 14.4718 13.5412 14.4718C12.5414 14.4718 11.9281 13.652 11.9281 12.3122V8.98265C11.9281 8.88267 12.0014 8.80935 12.1015 8.80935H13.168C13.2679 8.80935 13.3413 8.88267 13.3413 8.98265V12.2055C13.3413 12.8388 13.5946 13.1854 14.0745 13.1854C14.6077 13.1854 14.8877 12.7854 14.8877 12.0189V8.98265C14.8877 8.88267 14.961 8.80935 15.061 8.80935H16.1275C16.2275 8.80935 16.3008 8.88267 16.3008 8.98265ZM19.0533 9.79937C19.4332 9.79937 19.7132 10.0127 19.7798 10.3793C19.7931 10.4859 19.8732 10.5309 19.9798 10.5126L20.9397 10.3526C21.0596 10.3326 21.0996 10.2593 21.073 10.1393C20.873 9.28277 20.2064 8.68951 19.0533 8.68951C17.9401 8.68951 17.0469 9.2961 17.0469 10.3793C17.0469 11.1525 17.4269 11.7224 18.6 12.0057L19.1799 12.1457C19.6132 12.2507 19.8198 12.439 19.8198 12.7856C19.8198 13.1422 19.5265 13.3621 19.1066 13.3621C18.6467 13.3621 18.3267 13.0822 18.2334 12.4989C18.2067 12.3523 18.1401 12.3023 18.0201 12.3257L17.1002 12.4989C16.9936 12.519 16.9402 12.5923 16.9536 12.6989C17.1136 13.9054 18.0201 14.472 19.1066 14.472C20.2998 14.472 21.1929 13.7054 21.1929 12.6589C21.1929 11.8324 20.7797 11.2791 19.8131 11.0392L19.0333 10.8458C18.62 10.7425 18.42 10.5659 18.42 10.2926C18.42 9.99933 18.6733 9.79937 19.0533 9.79937ZM26.3312 14.472C27.3577 14.472 28.2376 13.8121 28.4775 12.6123C28.4975 12.4989 28.4442 12.4256 28.3376 12.4056L27.3711 12.2323C27.2644 12.2123 27.1977 12.259 27.1711 12.3723C27.0244 13.0455 26.7312 13.3455 26.3312 13.3455C25.718 13.3455 25.398 12.7189 25.398 11.5791C25.398 10.4426 25.718 9.81602 26.3312 9.81602C26.7312 9.81602 27.0244 10.116 27.1711 10.7892C27.1977 10.9025 27.2644 10.9492 27.3711 10.9292L28.3376 10.7559C28.4442 10.7359 28.4975 10.6626 28.4775 10.5492C28.2376 9.34942 27.3577 8.68951 26.3312 8.68951C24.9581 8.68951 23.9316 9.93601 23.9316 11.5791C23.9316 13.2255 24.9581 14.472 26.3312 14.472ZM21.8749 17.138C21.9417 17.291 22.1348 17.2911 22.4347 17.2312C23.2345 17.058 24.2474 17.0447 24.4207 17.2844C24.5873 17.5308 24.2208 18.4764 23.7876 19.1688C23.6276 19.4352 23.561 19.6016 23.6943 19.7282C23.7276 19.7681 23.7743 19.7814 23.8276 19.7881C23.9875 19.7881 24.1941 19.6283 24.3874 19.4485C24.8072 19.0823 25.1338 18.6161 25.3137 18.0901C25.4936 17.5841 25.5803 16.8716 25.3937 16.5986C25.2138 16.3389 24.514 16.1658 23.9742 16.1725C23.4077 16.1725 22.8612 16.3123 22.3681 16.572C22.0615 16.7384 21.7819 16.9248 21.8749 17.138ZM7.39973 17.371C7.23978 17.1713 7.13242 16.9984 7.08653 16.8583C7.02556 16.6722 7.07984 16.572 7.13981 16.5254C7.30644 16.3922 7.55304 16.572 7.77959 16.7518C10.1521 18.6628 13.2844 19.3886 16.21 19.3886C18.8025 19.3886 21.2416 18.816 22.8277 17.9836C23.0943 17.8438 23.3142 17.7306 23.4608 17.8838C23.5075 17.937 23.5341 17.9903 23.5341 18.0569C23.5341 18.2167 23.3809 18.4231 23.0876 18.6828C21.3816 20.161 18.6958 21 15.9168 21C12.7379 21 9.44569 19.8947 7.39973 17.371ZM9.39128 0.999859C9.13798 0.368283 8.65139 0 7.99149 0C7.37825 0 6.91831 0.339953 6.67834 0.946534H6.62503L6.49171 0.293295C6.47005 0.186645 6.40506 0.119985 6.30508 0.119985H5.4252C5.32522 0.119985 5.2519 0.193312 5.2519 0.293295V5.48919C5.2519 5.58918 5.32522 5.6625 5.4252 5.6625H6.49171C6.59169 5.6625 6.66503 5.58918 6.66503 5.48919V2.4863C6.66503 1.71308 6.93831 1.29314 7.45823 1.29314C7.93151 1.29314 8.18479 1.6531 8.18479 2.29967V5.48919C8.18479 5.58918 8.25813 5.6625 8.35811 5.6625H9.42462C9.5246 5.6625 9.59792 5.58918 9.59792 5.48919V2.4863C9.59792 1.71308 9.8712 1.29314 10.3911 1.29314C10.8644 1.29314 11.1177 1.6531 11.1177 2.29967V5.48919C11.1177 5.58918 11.191 5.6625 11.291 5.6625H12.3575C12.4575 5.6625 12.5308 5.58918 12.5308 5.48919V2.19302C12.5308 0.839883 11.9242 0 10.9244 0C10.3178 0 9.83788 0.328292 9.4446 0.999859H9.39128ZM14.7363 5.78248C13.7831 5.78248 13.1432 5.10925 13.1432 4.11606C13.1432 2.91957 14.0831 2.15302 15.5762 2.15302C15.7895 2.15302 15.9761 2.16469 16.1294 2.19801V2.0597C16.1294 1.3798 15.8795 1.05318 15.3729 1.05318C14.9729 1.05318 14.7096 1.27483 14.5897 1.69976C14.5563 1.8214 14.4897 1.87973 14.3764 1.85973L13.4498 1.69976C13.3365 1.67976 13.2765 1.58644 13.3098 1.4598C13.5565 0.521603 14.3297 0 15.4695 0C16.8227 0 17.5426 0.746556 17.5426 2.13802V5.48919C17.5426 5.58918 17.4692 5.6625 17.3692 5.6625H16.4894C16.3861 5.6625 16.3261 5.59584 16.3027 5.48919L16.1694 4.86261H16.1161C15.8761 5.44086 15.3962 5.78248 14.7363 5.78248ZM15.2762 4.7293C15.8295 4.7293 16.1294 4.22271 16.1294 3.29619V2.94457C16.0161 2.92458 15.8961 2.91125 15.7761 2.91125C15.0496 2.91125 14.5963 3.31619 14.5963 3.95609C14.5963 4.42934 14.863 4.7293 15.2762 4.7293ZM18.2152 4.43586C18.1619 4.51586 18.1352 4.59585 18.1352 4.68917V5.48905C18.1352 5.58903 18.2086 5.66236 18.3086 5.66236H21.9747C22.0747 5.66236 22.148 5.58903 22.148 5.48905V4.71583C22.148 4.61584 22.0813 4.54252 21.9747 4.54252H19.77L21.9613 1.34634C22.0213 1.25968 22.0413 1.18635 22.0413 1.09303V0.293152C22.0413 0.193169 21.968 0.119842 21.868 0.119842H18.3619C18.2619 0.119842 18.1886 0.193169 18.1886 0.293152V1.06636C18.1886 1.16636 18.2619 1.23969 18.3619 1.23969H20.3849L18.2152 4.43586ZM22.4143 2.89124C22.4143 1.23816 23.4475 0 24.8139 0C26.1871 0 27.2269 1.23816 27.2269 2.89124C27.2269 4.54266 26.1871 5.78082 24.8139 5.78082C23.4475 5.78082 22.4143 4.54266 22.4143 2.89124ZM24.8139 4.64931C25.4205 4.64931 25.7605 4.02274 25.7605 2.89124C25.7605 1.75808 25.4205 1.13151 24.8139 1.13151C24.214 1.13151 23.8808 1.75808 23.8808 2.89124C23.8808 4.02274 24.214 4.64931 24.8139 4.64931ZM32.3255 2.19302C32.3255 0.839883 31.6989 0 30.6791 0C30.0458 0 29.5659 0.341626 29.3259 0.946534H29.2726L29.1393 0.293295C29.1176 0.186645 29.0526 0.119985 28.9527 0.119985H28.0728C27.9728 0.119985 27.8995 0.193312 27.8995 0.293295V5.48919C27.8995 5.58918 27.9728 5.6625 28.0728 5.6625H29.1393C29.2393 5.6625 29.3126 5.58918 29.3126 5.48919V2.4863C29.3126 1.71308 29.6059 1.29314 30.1458 1.29314C30.6391 1.29314 30.9124 1.6531 30.9124 2.29967V5.48919C30.9124 5.58918 30.9857 5.6625 31.0857 5.6625H32.1522C32.2522 5.6625 32.3255 5.58918 32.3255 5.48919V2.19302Z" fill="white"/>
</svg>
