<svg width="23" height="21" viewBox="0 0 23 21" fill="none" xmlns="http://www.w3.org/2000/svg">
<path d="M11.48 21C9.30746 21 7.19439 20.3201 5.39543 19.0208C4.27735 18.2164 3.32953 17.1987 2.60661 16.0263C1.88368 14.8539 1.39995 13.5501 1.18329 12.1898C0.95812 10.8302 1.00384 9.4394 1.31782 8.09745C1.6318 6.75549 2.20784 5.4888 3.01287 4.37016C3.81005 3.24857 4.82251 2.29688 5.99124 1.57056C7.15996 0.844235 8.46157 0.357812 9.8202 0.139642C11.1749 -0.0851597 12.5608 -0.038162 13.8971 0.277898C15.2335 0.593958 16.4936 1.17276 17.604 1.9806C18.7221 2.78506 19.6699 3.80279 20.393 4.97515C21.1161 6.14751 21.6 7.45135 21.817 8.81155C22.0421 10.1714 21.9964 11.5623 21.6824 12.9043C21.3684 14.2464 20.7924 15.5133 19.9875 16.6321C19.1901 17.7535 18.1776 18.7051 17.0089 19.4314C15.8402 20.1577 14.5387 20.6442 13.1801 20.8626C12.6123 20.9545 12.0435 21 11.48 21ZM5.81542 18.4398C6.84957 19.1919 8.02297 19.7309 9.26734 20.0253C10.5117 20.3197 11.8022 20.3637 13.0637 20.1548C14.3291 19.9511 15.5412 19.4978 16.6297 18.8213C17.7182 18.1447 18.6612 17.2584 19.4038 16.2139C22.5389 11.8355 21.5432 5.71063 17.1831 2.56071C16.149 1.80859 14.9756 1.26964 13.7312 0.975223C12.4869 0.680804 11.1964 0.636793 9.93482 0.84575C8.66968 1.04958 7.45771 1.50297 6.36941 2.17953C5.28112 2.85609 4.33823 3.74232 3.5956 4.78665C0.459679 9.16504 1.45628 15.2899 5.81542 18.4398ZM15.0954 15.3319C15.4017 15.2477 15.6805 15.0849 15.9043 14.8595C16.1281 14.6342 16.2891 14.3542 16.3712 14.0474L16.4254 13.8584L16.4324 8.79493C16.4377 5.00277 16.4324 3.7078 16.4114 3.63693C16.3919 3.56739 16.3566 3.5033 16.3082 3.44969C16.2353 3.40602 16.1516 3.38387 16.0667 3.38581C16.0028 3.38581 15.7823 3.41644 15.5767 3.45406C14.6658 3.62031 9.29784 4.68865 9.20597 4.72278C9.05705 4.78218 8.93356 4.89174 8.85685 5.03252L8.79998 5.14452C8.79998 5.14452 8.77285 13.0814 8.73173 13.1707C8.66483 13.3108 8.54725 13.4202 8.40273 13.4769C8.22649 13.5228 8.04877 13.5627 7.86987 13.5968C6.79277 13.8112 6.39291 13.9652 6.05429 14.2977C5.8618 14.4867 5.72005 14.7439 5.65793 15.0143C5.5993 15.2724 5.61855 15.6591 5.70255 15.8945C5.79005 16.1404 5.9318 16.3504 6.11642 16.5157C6.28441 16.6452 6.48303 16.7415 6.70615 16.7992C7.19876 16.9252 8.12187 16.7852 8.59436 16.5122C8.823 16.3687 9.02128 16.1817 9.17797 15.9619C9.23046 15.884 9.30921 15.7274 9.35296 15.6128C9.50696 15.2138 9.51133 8.10369 9.53146 8.01445C9.54492 7.94295 9.57836 7.87672 9.62792 7.82345C9.67747 7.77018 9.74111 7.73204 9.81145 7.71345C9.94007 7.67933 15.1094 6.65736 15.2556 6.63723C15.3833 6.61973 15.5041 6.66086 15.5706 6.74223C15.609 6.76168 15.6418 6.79059 15.6659 6.82623C15.7079 6.88835 15.7106 7.0126 15.7167 9.26304C15.7237 11.8539 15.7272 11.7935 15.5863 11.9571C15.4839 12.0761 15.3562 12.1225 14.8303 12.2292C14.0306 12.3928 13.7576 12.4698 13.4514 12.6195C13.069 12.8058 12.8573 13.0106 12.6928 13.3509C12.5857 13.5542 12.5309 13.7809 12.5335 14.0107C12.5344 14.4385 12.6814 14.7728 13.0147 15.1C13.0454 15.1298 13.0751 15.1578 13.1057 15.1849C13.2737 15.3144 13.4444 15.3931 13.6596 15.4421C13.9833 15.5139 14.6431 15.464 15.0954 15.3319Z" fill="white"/>
</svg>
