<svg width="24" height="22" viewBox="0 0 24 22" fill="none" xmlns="http://www.w3.org/2000/svg">
<path fill-rule="evenodd" clip-rule="evenodd" d="M2.47214 5.33333C1.10681 5.33333 0 6.44015 0 7.80547V14.4762C0 17.1492 0 18.4857 0.613103 19.4615C0.932813 19.9703 1.36306 20.4005 1.87187 20.7202C2.84762 21.3333 4.18413 21.3333 6.85714 21.3333H17.1429C19.8159 21.3333 21.1524 21.3333 22.1281 20.7202C22.6369 20.4005 23.0672 19.9703 23.3869 19.4615C24 18.4857 24 17.1492 24 14.4762V7.80547C24 6.44015 22.8932 5.33333 21.5279 5.33333C20.5915 5.33333 19.7355 4.80429 19.3167 3.96677L18.2222 1.77778C18.0756 1.48456 18.0023 1.33795 17.9192 1.21043C17.4855 0.545089 16.7778 0.1077 15.9887 0.0173221C15.8375 0 15.6735 0 15.3457 0H8.65428C8.32645 0 8.16254 0 8.0113 0.0173221C7.22224 0.1077 6.51453 0.545089 6.08082 1.21043C5.99769 1.33795 5.92439 1.48456 5.77778 1.77778L4.68328 3.96677C4.26452 4.80429 3.40851 5.33333 2.47214 5.33333ZM14.6667 12.0001C14.6667 13.4728 13.4728 14.6667 12 14.6667C10.5272 14.6667 9.33333 13.4728 9.33333 12.0001C9.33333 10.5273 10.5272 9.33342 12 9.33342C13.4728 9.33342 14.6667 10.5273 14.6667 12.0001ZM17.3333 12.0001C17.3333 14.9456 14.9455 17.3334 12 17.3334C9.05448 17.3334 6.66667 14.9456 6.66667 12.0001C6.66667 9.05456 9.05448 6.66675 12 6.66675C14.9455 6.66675 17.3333 9.05456 17.3333 12.0001Z" fill="white"/>
</svg>
