<svg width="15" height="19" viewBox="0 0 15 19" fill="none" xmlns="http://www.w3.org/2000/svg">
<path fill-rule="evenodd" clip-rule="evenodd" d="M3.5 5.5C3.5 5.02377 3.50061 4.8219 3.51685 4.65694C3.68052 2.99522 4.99522 1.68052 6.65694 1.51686C6.82189 1.50061 7.02376 1.5 7.5 1.5C7.97623 1.5 8.1781 1.50061 8.34306 1.51685C10.0048 1.68052 11.3195 2.99522 11.4831 4.65694C11.4994 4.8219 11.5 5.02376 11.5 5.5V5.50755C11.1792 5.49999 10.825 5.5 10.4361 5.5H4.56386C4.17498 5.5 3.82082 5.49999 3.5 5.50755V5.5ZM2.5 5.57857V5.5L2.5 5.46493C2.49999 5.03387 2.49998 4.77919 2.52167 4.55893C2.7321 2.42243 4.42243 0.732098 6.55892 0.521671C6.77919 0.499977 7.03388 0.499986 7.46495 0.500001L7.53507 0.500001C7.96613 0.499985 8.22081 0.499976 8.44107 0.52167C10.5776 0.732096 12.2679 2.42243 12.4783 4.55892C12.5 4.77918 12.5 5.03386 12.5 5.4649V5.57857C13.0206 5.6553 13.4677 5.81498 13.8263 6.17366C14.1983 6.54565 14.3563 7.01268 14.4296 7.55829C14.5 8.08183 14.5 8.74607 14.5 9.56387V12.038C14.5 13.42 14.5 14.5082 14.3857 15.3584C14.2684 16.2308 14.0226 16.9272 13.4749 17.4749C12.9271 18.0226 12.2308 18.2684 11.3584 18.3857C10.5082 18.5 9.41998 18.5 8.03795 18.5H6.96205C5.58002 18.5 4.4918 18.5 3.64156 18.3857C2.76918 18.2684 2.07285 18.0226 1.52513 17.4749C0.977403 16.9272 0.731584 16.2308 0.614295 15.3584C0.499985 14.5082 0.499992 13.42 0.5 12.038V12.038V9.56386V9.56385C0.499986 8.74606 0.499974 8.08182 0.570361 7.55829C0.643716 7.01268 0.801667 6.54565 1.17366 6.17366C1.53233 5.81498 1.97937 5.6553 2.5 5.57857ZM11.5 9C11.5 8.72386 11.2761 8.5 11 8.5C10.7239 8.5 10.5 8.72386 10.5 9V11C10.5 11.2761 10.7239 11.5 11 11.5C11.2761 11.5 11.5 11.2761 11.5 11V9ZM4 8.5C4.27614 8.5 4.5 8.72386 4.5 9V11C4.5 11.2761 4.27614 11.5 4 11.5C3.72386 11.5 3.5 11.2761 3.5 11V9C3.5 8.72386 3.72386 8.5 4 8.5ZM1.88076 6.88076C2.03598 6.72554 2.25681 6.61989 2.69154 6.56145C3.14064 6.50107 3.73734 6.5 4.6 6.5H10.4C11.2627 6.5 11.8594 6.50107 12.3085 6.56145C12.7432 6.61989 12.964 6.72554 13.1192 6.88076C13.2745 7.03598 13.3801 7.25682 13.4386 7.69154C13.4989 8.14064 13.5 8.73734 13.5 9.6V12C13.5 13.4284 13.4989 14.4493 13.3946 15.2252C13.2922 15.9867 13.0987 16.4368 12.7678 16.7678C12.4368 17.0987 11.9867 17.2922 11.2252 17.3946C10.4493 17.4989 9.42835 17.5 8 17.5H7C5.57165 17.5 4.55069 17.4989 3.77481 17.3946C3.01331 17.2922 2.56319 17.0987 2.23223 16.7678C1.90128 16.4368 1.70776 15.9867 1.60538 15.2252C1.50106 14.4493 1.5 13.4284 1.5 12V9.6C1.5 8.73734 1.50106 8.14064 1.56144 7.69154C1.61989 7.25682 1.72554 7.03598 1.88076 6.88076Z" fill="white"/>
</svg>
