<svg width="24" height="25" viewBox="0 0 24 25" fill="none" xmlns="http://www.w3.org/2000/svg">
<path fill-rule="evenodd" clip-rule="evenodd" d="M6.8628 4.38291C8.21537 3.63149 10.0331 3.19019 12 3.19019C13.9669 3.19019 15.7846 3.63149 17.1372 4.38291C18.4644 5.12024 19.5 6.2586 19.5 7.69019V16.6902C19.5 18.1218 18.4644 19.2601 17.1372 19.9974C15.7846 20.7489 13.9669 21.1902 12 21.1902C10.0331 21.1902 8.21537 20.7489 6.8628 19.9974C5.53563 19.2601 4.5 18.1218 4.5 16.6902V7.69019C4.5 6.2586 5.53563 5.12024 6.8628 4.38291ZM6 14.9245V16.6902C6 17.3296 6.47541 18.0663 7.59126 18.6862C8.6817 19.2921 10.239 19.6902 12 19.6902C13.761 19.6902 15.3183 19.2921 16.4088 18.6862C17.5247 18.0663 18 17.3296 18 16.6902V14.9245C17.734 15.1359 17.4433 15.3274 17.1372 15.4974C15.7846 16.2489 13.9669 16.6902 12 16.6902C10.0331 16.6902 8.21537 16.2489 6.8628 15.4974C6.55664 15.3274 6.266 15.1359 6 14.9245ZM18 12.1902C18 12.8297 17.5247 13.5663 16.4088 14.1862C15.3183 14.792 13.761 15.1902 12 15.1902C10.239 15.1902 8.6817 14.792 7.59126 14.1862C6.47541 13.5663 6 12.8297 6 12.1902V10.4245C6.266 10.6359 6.55664 10.8274 6.8628 10.9975C8.21537 11.7489 10.0331 12.1902 12 12.1902C13.9669 12.1902 15.7846 11.7489 17.1372 10.9975C17.4433 10.8274 17.734 10.6359 18 10.4245V12.1902ZM16.4088 5.69415C17.5247 6.31407 18 7.05071 18 7.69019C18 8.32967 17.5247 9.0663 16.4088 9.68622C15.3183 10.292 13.761 10.6902 12 10.6902C10.239 10.6902 8.6817 10.292 7.59126 9.68622C6.47541 9.0663 6 8.32967 6 7.69019C6 7.05071 6.47541 6.31407 7.59126 5.69415C8.6817 5.08835 10.239 4.69019 12 4.69019C13.761 4.69019 15.3183 5.08835 16.4088 5.69415Z" fill="white"/>
</svg>
