<svg width="16" height="16" viewBox="0 0 16 16" fill="none" xmlns="http://www.w3.org/2000/svg">
<path fill-rule="evenodd" clip-rule="evenodd" d="M0.234337 14.4384C0.0390751 14.6337 0.0390751 14.9503 0.234337 15.1455C0.429599 15.3408 0.746182 15.3408 0.941444 15.1455L7.54265 8.54431L14.201 15.2026C14.3962 15.3979 14.7128 15.3979 14.9081 15.2026C15.1034 15.0074 15.1034 14.6908 14.9081 14.4955L8.24976 7.8372L14.3765 1.71049C14.5717 1.51522 14.5717 1.19864 14.3765 1.00338C14.1812 0.808118 13.8646 0.808118 13.6694 1.00338L7.54265 7.1301L1.6152 1.20264C1.41993 1.00738 1.10335 1.00738 0.90809 1.20264C0.712828 1.39791 0.712828 1.71449 0.90809 1.90975L6.83554 7.8372L0.234337 14.4384Z" fill="white"/>
</svg>
