<svg width="23" height="21" viewBox="0 0 23 21" fill="none" xmlns="http://www.w3.org/2000/svg">
<path d="M17.9954 3V5.89878H22.9606V3H17.9954ZM5.99847 7.03725V9.93316H10.9628V7.03725H5.99847ZM17.9954 7.03725V9.93316H22.9606V7.03725H17.9954ZM5.99847 11.0688V13.9647H10.9628V11.0688H5.99847ZM11.9979 11.0688V13.9647H16.9631V11.0688H11.9979ZM17.9964 11.0688V13.9647H22.9606V11.0688H17.9954H17.9964ZM0 15.1022V18H4.96524V15.1012L0 15.1022ZM5.99847 15.1022V18H10.9628V15.1012H5.99751L5.99847 15.1022ZM11.9979 15.1022V18H16.9631V15.1012L11.9979 15.1022ZM17.9964 15.1022V18H22.9606V15.1012H17.9954L17.9964 15.1022Z" fill="white"/>
</svg>
