<svg width="85" height="85" viewBox="0 0 85 85" fill="none" xmlns="http://www.w3.org/2000/svg">
<g clip-path="url(#clip0_2146_2268)">
<path d="M42.5 0C19.03 0 0 19.03 0 42.5C0 65.97 19.03 85 42.5 85C65.97 85 85 65.97 85 42.5C85 19.03 65.97 0 42.5 0ZM42.5 69.5C27.59 69.5 15.5 57.41 15.5 42.5C15.5 27.59 27.59 15.5 42.5 15.5C57.41 15.5 69.5 27.59 69.5 42.5C69.5 57.41 57.41 69.5 42.5 69.5Z" fill="white"/>
<path d="M63.4399 17.0801C64.5445 17.0801 65.4399 16.1846 65.4399 15.0801C65.4399 13.9755 64.5445 13.0801 63.4399 13.0801C62.3354 13.0801 61.4399 13.9755 61.4399 15.0801C61.4399 16.1846 62.3354 17.0801 63.4399 17.0801Z" fill="#050505"/>
<path d="M69.9199 65.4399C71.0245 65.4399 71.9199 64.5445 71.9199 63.4399C71.9199 62.3354 71.0245 61.4399 69.9199 61.4399C68.8154 61.4399 67.9199 62.3354 67.9199 63.4399C67.9199 64.5445 68.8154 65.4399 69.9199 65.4399Z" fill="#050505"/>
<path d="M21.5601 71.9199C22.6646 71.9199 23.5601 71.0245 23.5601 69.9199C23.5601 68.8154 22.6646 67.9199 21.5601 67.9199C20.4555 67.9199 19.5601 68.8154 19.5601 69.9199C19.5601 71.0245 20.4555 71.9199 21.5601 71.9199Z" fill="#050505"/>
<path d="M15.0801 23.5601C16.1846 23.5601 17.0801 22.6646 17.0801 21.5601C17.0801 20.4555 16.1846 19.5601 15.0801 19.5601C13.9755 19.5601 13.0801 20.4555 13.0801 21.5601C13.0801 22.6646 13.9755 23.5601 15.0801 23.5601Z" fill="#050505"/>
<path d="M73.9702 20.6401L74.5102 21.5101L69.3802 24.7101L70.9502 27.2201L70.3502 27.5901L68.2402 24.2101L73.9702 20.6401Z" fill="#050505"/>
<path d="M76.8302 25.5703L77.2702 26.4903L71.1802 29.3903L70.7402 28.4703L76.8302 25.5703Z" fill="#050505"/>
<path d="M72.4 30.6501C72.66 30.1701 73.22 29.7901 74.08 29.5101L74.39 30.4901C73.66 30.7301 73.23 31.0101 73.09 31.3401C72.95 31.6701 72.97 32.0901 73.13 32.5801C73.29 33.0801 73.5 33.4301 73.77 33.6301C74.04 33.8401 74.33 33.8901 74.64 33.7901C75.02 33.6701 75.24 33.4201 75.29 33.0501C75.34 32.6801 75.34 32.1801 75.29 31.5401C75.23 30.6901 75.27 30.0601 75.4 29.6501C75.53 29.2301 75.86 28.9401 76.4 28.7701C76.89 28.6101 77.37 28.6601 77.83 28.9201C78.29 29.1801 78.68 29.7701 78.97 30.6901C79.27 31.6301 79.29 32.3401 79.02 32.8301C78.75 33.3201 78.21 33.6901 77.4 33.9501L77.09 32.9701C77.8 32.7401 78.22 32.4601 78.35 32.1201C78.48 31.7801 78.47 31.3701 78.31 30.8801C78.15 30.3801 77.94 30.0301 77.66 29.8301C77.39 29.6201 77.11 29.5701 76.81 29.6601C76.44 29.7801 76.23 30.0301 76.17 30.4001C76.11 30.7701 76.11 31.2801 76.15 31.9001C76.21 32.7701 76.19 33.4101 76.07 33.8101C75.95 34.2101 75.63 34.5101 75.08 34.6801C74.57 34.8401 74.08 34.8001 73.61 34.5501C73.14 34.3001 72.76 33.7101 72.46 32.7801C72.15 31.8201 72.13 31.1101 72.39 30.6201L72.4 30.6501Z" fill="#050505"/>
<path d="M79.6602 36.8702L79.3802 34.8202L80.0802 34.7202L80.7802 39.8302L80.0802 39.9302L79.8002 37.8802L73.8202 38.7002L73.6802 37.6902L79.6602 36.8702Z" fill="#050505"/>
<path d="M80.8502 41.4703L80.7102 45.9403L80.0002 45.9203L80.1102 42.4703L77.8602 42.4003L77.7602 45.6403L77.0902 45.6203L77.1902 42.3803L74.7902 42.3003L74.6802 45.7503L73.9702 45.7303L74.1102 41.2603L80.8602 41.4703H80.8502Z" fill="#050505"/>
<path d="M80.5502 47.8802L80.2002 49.4702L73.7102 51.2302L79.5302 52.5402L79.3102 53.5402L72.7202 52.0802L73.0702 50.5002L79.6102 48.7402V48.7202L73.7502 47.4202L73.9702 46.4302L80.5602 47.8902L80.5502 47.8802Z" fill="#050505"/>
<path d="M20.6401 11.0302L21.5101 10.4902L24.7101 15.6202L27.2201 14.0502L27.5901 14.6502L24.2101 16.7602L20.6401 11.0302Z" fill="#050505"/>
<path d="M25.5703 8.16998L26.4903 7.72998L29.3903 13.82L28.4703 14.26L25.5703 8.16998Z" fill="#050505"/>
<path d="M30.6501 12.6001C30.1701 12.3401 29.7901 11.7801 29.5101 10.9201L30.4901 10.6101C30.7301 11.3401 31.0101 11.7701 31.3401 11.9101C31.6701 12.0501 32.0901 12.0301 32.5801 11.8701C33.0801 11.7101 33.4301 11.5001 33.6301 11.2301C33.8401 10.9601 33.8901 10.6701 33.7901 10.3601C33.6701 9.98008 33.4201 9.76008 33.0501 9.71008C32.6801 9.66008 32.1801 9.66008 31.5401 9.71008C30.6901 9.77008 30.0601 9.73008 29.6501 9.60008C29.2301 9.47008 28.9401 9.14008 28.7701 8.60008C28.6101 8.11008 28.6601 7.63008 28.9201 7.17008C29.1801 6.71008 29.7701 6.32008 30.6901 6.03008C31.6301 5.73008 32.3401 5.71008 32.8301 5.98008C33.3201 6.25008 33.6901 6.79008 33.9501 7.60008L32.9701 7.91008C32.7401 7.20008 32.4601 6.78008 32.1201 6.65008C31.7801 6.52008 31.3701 6.53008 30.8801 6.69008C30.3801 6.85008 30.0301 7.06008 29.8301 7.34008C29.6201 7.61008 29.5701 7.89008 29.6601 8.19008C29.7801 8.56008 30.0301 8.77008 30.4001 8.83008C30.7701 8.89008 31.2801 8.89008 31.9001 8.85008C32.7701 8.79008 33.4101 8.81008 33.8101 8.93008C34.2101 9.05008 34.5101 9.37008 34.6801 9.92008C34.8401 10.4301 34.8001 10.9201 34.5501 11.3901C34.3001 11.8601 33.7101 12.2401 32.7801 12.5401C31.8201 12.8501 31.1101 12.8701 30.6201 12.6101L30.6501 12.6001Z" fill="#050505"/>
<path d="M36.8702 5.34022L34.8202 5.62021L34.7202 4.92022L39.8302 4.22021L39.9302 4.92022L37.8802 5.20021L38.7002 11.1802L37.6902 11.3202L36.8702 5.34022Z" fill="#050505"/>
<path d="M41.4703 4.15014L45.9403 4.29014L45.9203 5.00014L42.4703 4.89014L42.4003 7.14014L45.6403 7.24014L45.6203 7.91014L42.3803 7.81014L42.3003 10.2101L45.7503 10.3201L45.7303 11.0301L41.2603 10.8901L41.4703 4.14014V4.15014Z" fill="#050505"/>
<path d="M47.8799 4.44994L49.4699 4.79994L51.2299 11.2899H51.2399L52.5299 5.46994L53.5299 5.68994L52.0699 12.2799L50.4899 11.9299L48.7299 5.38994H48.7099L47.4099 11.2499L46.4199 11.0299L47.8799 4.43994V4.44994Z" fill="#050505"/>
<path d="M11.0302 64.3602L10.4902 63.4902L15.6202 60.2902L14.0502 57.7802L14.6502 57.4102L16.7602 60.7902L11.0302 64.3602Z" fill="#050505"/>
<path d="M8.16998 59.4299L7.72998 58.5099L13.82 55.6099L14.26 56.5299L8.16998 59.4299Z" fill="#050505"/>
<path d="M12.6001 54.3502C12.3401 54.8302 11.7801 55.2102 10.9201 55.4902L10.6101 54.5102C11.3401 54.2702 11.7701 53.9902 11.9101 53.6602C12.0501 53.3302 12.0301 52.9102 11.8701 52.4202C11.7101 51.9202 11.5001 51.5702 11.2301 51.3702C10.9601 51.1702 10.6701 51.1102 10.3601 51.2202C9.98008 51.3402 9.76008 51.5902 9.71008 51.9602C9.66008 52.3302 9.66008 52.8302 9.71008 53.4702C9.77008 54.3202 9.73008 54.9502 9.60008 55.3602C9.47008 55.7702 9.14008 56.0702 8.60008 56.2402C8.11008 56.4002 7.63008 56.3502 7.17008 56.0902C6.71008 55.8302 6.32008 55.2402 6.03008 54.3202C5.73008 53.3802 5.71008 52.6702 5.98008 52.1802C6.25008 51.6902 6.79008 51.3202 7.60008 51.0602L7.91008 52.0402C7.20008 52.2702 6.78008 52.5502 6.65008 52.8902C6.52008 53.2302 6.53008 53.6402 6.69008 54.1302C6.85008 54.6302 7.06008 54.9802 7.34008 55.1802C7.62008 55.3802 7.89008 55.4402 8.19008 55.3502C8.56008 55.2302 8.77008 54.9802 8.83008 54.6102C8.88008 54.2302 8.89008 53.7302 8.85008 53.1102C8.79008 52.2402 8.81008 51.6002 8.93008 51.2002C9.05008 50.8002 9.37008 50.5002 9.92008 50.3302C10.4301 50.1602 10.9201 50.2102 11.3901 50.4602C11.8601 50.7102 12.2401 51.3002 12.5401 52.2302C12.8501 53.1902 12.8701 53.9002 12.6101 54.3902L12.6001 54.3502Z" fill="#050505"/>
<path d="M5.34022 48.1298L5.62021 50.1798L4.92022 50.2798L4.22021 45.1698L4.92022 45.0698L5.20021 47.1198L11.1802 46.2998L11.3202 47.3098L5.34022 48.1298Z" fill="#050505"/>
<path d="M4.15014 43.5301L4.29014 39.0601L5.00014 39.0801L4.89014 42.5301L7.14014 42.6001L7.24014 39.3601L7.91014 39.3801L7.81014 42.6201L10.2101 42.7001L10.3201 39.2501L11.0301 39.2701L10.8901 43.7401L4.14014 43.5301H4.15014Z" fill="#050505"/>
<path d="M4.44994 37.12L4.79994 35.53L11.2899 33.77L5.46994 32.46L5.68994 31.46L12.2799 32.92L11.9299 34.5L5.38994 36.26V36.28L11.2499 37.58L11.0299 38.57L4.43994 37.11L4.44994 37.12Z" fill="#050505"/>
<path d="M64.3602 73.9702L63.4902 74.5102L60.2902 69.3802L57.7802 70.9502L57.4102 70.3502L60.7902 68.2402L64.3602 73.9702Z" fill="#050505"/>
<path d="M59.4304 76.8302L58.5103 77.2702L55.6104 71.1802L56.5303 70.7402L59.4304 76.8302Z" fill="#050505"/>
<path d="M54.3502 72.4C54.8302 72.66 55.2102 73.22 55.4902 74.08L54.5102 74.39C54.2702 73.66 53.9902 73.23 53.6602 73.09C53.3302 72.95 52.9102 72.97 52.4202 73.13C51.9202 73.29 51.5702 73.5 51.3702 73.77C51.1702 74.04 51.1102 74.33 51.2202 74.64C51.3402 75.02 51.5902 75.24 51.9602 75.29C52.3302 75.34 52.8302 75.34 53.4702 75.29C54.3202 75.23 54.9502 75.27 55.3602 75.4C55.7702 75.53 56.0702 75.86 56.2402 76.4C56.4002 76.89 56.3502 77.37 56.0902 77.83C55.8302 78.29 55.2402 78.68 54.3202 78.97C53.3802 79.27 52.6702 79.29 52.1802 79.02C51.6902 78.75 51.3202 78.21 51.0602 77.4L52.0402 77.09C52.2702 77.8 52.5502 78.22 52.8902 78.35C53.2302 78.48 53.6402 78.47 54.1302 78.31C54.6302 78.15 54.9802 77.94 55.1802 77.66C55.3802 77.38 55.4402 77.11 55.3502 76.81C55.2302 76.44 54.9802 76.23 54.6102 76.17C54.2302 76.12 53.7302 76.11 53.1102 76.15C52.2402 76.21 51.6002 76.19 51.2002 76.07C50.8002 75.95 50.5002 75.63 50.3302 75.08C50.1602 74.57 50.2102 74.08 50.4602 73.61C50.7102 73.14 51.3002 72.76 52.2302 72.46C53.1902 72.15 53.9002 72.13 54.3902 72.39L54.3502 72.4Z" fill="#050505"/>
<path d="M48.1303 79.6602L50.1803 79.3802L50.2803 80.0802L45.1703 80.7802L45.0703 80.0802L47.1203 79.8002L46.3003 73.8202L47.3103 73.6802L48.1303 79.6602Z" fill="#050505"/>
<path d="M43.5301 80.8502L39.0601 80.7102L39.0801 80.0002L42.5301 80.1102L42.6001 77.8602L39.3601 77.7602L39.3801 77.0902L42.6201 77.1902L42.7001 74.7902L39.2501 74.6802L39.2701 73.9702L43.7401 74.1102L43.5301 80.8602V80.8502Z" fill="#050505"/>
<path d="M37.1202 80.5502L35.5302 80.2002L33.7702 73.7102H33.7602L32.4702 79.5302L31.4702 79.3102L32.9302 72.7202L34.5102 73.0702L36.2702 79.6102H36.2902L37.5902 73.7502L38.5802 73.9702L37.1202 80.5602V80.5502Z" fill="#050505"/>
</g>
<defs>
<clipPath id="clip0_2146_2268">
<rect width="85" height="85" fill="white"/>
</clipPath>
</defs>
</svg>
