<svg width="22" height="21" viewBox="0 0 22 21" fill="none" xmlns="http://www.w3.org/2000/svg">
<path fill-rule="evenodd" clip-rule="evenodd" d="M17.2535 18.5402C15.4279 20.0753 13.0719 21 10.5 21C4.70101 21 0 16.299 0 10.5C0 4.70101 4.70101 0 10.5 0C16.299 0 21 4.70101 21 10.5C21 13.0938 20.0595 15.4679 18.501 17.2999L20.8791 19.6833L19.6323 20.866L17.2535 18.5402ZM15.7842 17.1038C14.3366 18.2639 12.4993 18.9577 10.4999 18.9577C5.82944 18.9577 2.04346 15.1718 2.04346 10.5013C2.04346 5.8309 5.82944 2.04492 10.4999 2.04492C15.1696 2.04492 18.9563 5.8309 18.9563 10.5013C18.9563 12.5295 18.2423 14.3908 17.0521 15.8478L15.2152 14.0069C15.0481 13.7852 14.7837 13.6416 14.4854 13.6416C13.9803 13.6416 13.5708 14.0511 13.5708 14.5562C13.5708 14.8022 13.6687 15.0254 13.8271 15.1903C13.8374 15.2014 13.8492 15.2124 13.8602 15.2227L15.7842 17.1038ZM7.17342 10.5006C7.17342 12.338 8.66248 13.827 10.4999 13.827C12.3365 13.827 13.8263 12.338 13.8263 10.5006C13.8263 8.66321 12.3373 7.17415 10.4999 7.17415C8.66248 7.17415 7.17342 8.66321 7.17342 10.5006ZM10.5 11.2217C10.8986 11.2217 11.2217 10.8986 11.2217 10.5C11.2217 10.1014 10.8986 9.77832 10.5 9.77832C10.1014 9.77832 9.77832 10.1014 9.77832 10.5C9.77832 10.8986 10.1014 11.2217 10.5 11.2217Z" fill="white"/>
</svg>
