<svg width="30" height="21" viewBox="0 0 30 21" fill="none" xmlns="http://www.w3.org/2000/svg">
<path d="M1.4492 16.0244C1.5111 16.0244 1.5635 15.9735 1.5724 15.9018L1.9089 13.2347L1.5734 10.5069C1.5634 10.4352 1.5111 10.3839 1.4492 10.3839C1.3857 10.3839 1.3316 10.4363 1.3232 10.5069L1.0291 13.2347L1.3232 15.9009C1.3316 15.9725 1.3857 16.0244 1.4492 16.0244Z" fill="white"/>
<path d="M0.3397 15.01C0.4005 15.01 0.4498 14.9627 0.4587 14.892L0.7195 13.2346L0.4587 11.5462C0.4497 11.4777 0.4005 11.4282 0.3397 11.4282C0.2762 11.4282 0.227 11.4777 0.218 11.5472L0 13.2347L0.218 14.8916C0.227 14.9617 0.2762 15.01 0.3397 15.01Z" fill="white"/>
<path d="M2.7762 9.99922C2.7682 9.91252 2.7047 9.84922 2.6259 9.84922C2.5477 9.84922 2.4841 9.91252 2.4768 9.99922L2.1957 13.2347L2.4768 16.3521C2.4841 16.4383 2.5477 16.5008 2.6259 16.5008C2.7047 16.5008 2.7682 16.4383 2.7762 16.3521L3.0942 13.2347L2.7762 9.99922Z" fill="white"/>
<path d="M3.8152 16.6264C3.9074 16.6264 3.982 16.5505 3.991 16.4513L4.2915 13.2357L3.991 9.90992C3.982 9.81002 3.9074 9.73502 3.8152 9.73502C3.7217 9.73502 3.646 9.81012 3.6396 9.91042L3.374 13.2357L3.6396 16.4513C3.646 16.5506 3.7217 16.6264 3.8152 16.6264Z" fill="white"/>
<path d="M5.0127 16.6786C5.1201 16.6786 5.2063 16.5926 5.2152 16.4775L5.2142 16.4783L5.4972 13.2357L5.2142 10.15C5.2062 10.0368 5.1201 9.94951 5.0126 9.94951C4.9036 9.94951 4.8179 10.0368 4.8114 10.1509L4.5612 13.2358L4.8114 16.4776C4.818 16.5926 4.9037 16.6786 5.0127 16.6786Z" fill="white"/>
<path d="M6.7132 13.2365L6.4477 8.21932C6.4403 8.09212 6.3412 7.99072 6.2196 7.99072C6.0989 7.99072 6.0001 8.09202 5.9927 8.21932L5.7577 13.2365L5.9927 16.4783C6.0001 16.6061 6.099 16.7061 6.2196 16.7061C6.3413 16.7061 6.4403 16.6061 6.4477 16.4783L6.7132 13.2365Z" fill="white"/>
<path d="M7.4386 16.7114C7.5725 16.7114 7.6836 16.6003 7.6899 16.4585V16.4606L7.9381 13.2373L7.6899 7.07171C7.6836 6.92991 7.5725 6.81881 7.4386 6.81881C7.3016 6.81881 7.1915 6.92991 7.1841 7.07171L6.9656 13.2373L7.1851 16.4595C7.1915 16.6003 7.3016 16.7114 7.4386 16.7114Z" fill="white"/>
<path d="M8.6645 6.27831C8.5137 6.27831 8.392 6.40211 8.3858 6.55821L8.1825 13.2383L8.3858 16.4267C8.3921 16.582 8.5137 16.705 8.6645 16.705C8.8149 16.705 8.9375 16.583 8.9428 16.4262V16.4278L9.1735 13.2383L8.9428 6.55821C8.9375 6.40111 8.8148 6.27831 8.6645 6.27831Z" fill="white"/>
<path d="M9.901 16.7114C10.0666 16.7114 10.1985 16.5778 10.2047 16.4058V16.4077L10.418 13.2384L10.2047 6.33391C10.1984 6.16251 10.0666 6.02831 9.901 6.02831C9.7344 6.02831 9.6005 6.16251 9.5979 6.33391L9.4063 13.2384L9.5979 16.4077C9.6005 16.5778 9.7344 16.7114 9.901 16.7114Z" fill="white"/>
<path d="M11.1477 16.7082C11.3264 16.7082 11.4714 16.5619 11.4768 16.3764V16.3793L11.6731 13.2389L11.4768 6.51002C11.4714 6.32462 11.3264 6.17892 11.1477 6.17892C10.9677 6.17892 10.8227 6.32452 10.8174 6.51002L10.6449 13.2389L10.8185 16.3778C10.8227 16.5619 10.9677 16.7082 11.1477 16.7082Z" fill="white"/>
<path d="M12.9359 13.2389L12.7582 6.75532C12.7539 6.55532 12.5973 6.39822 12.4031 6.39822C12.2084 6.39822 12.0517 6.55532 12.0476 6.75662L11.8882 13.2389L12.0476 16.3587C12.0517 16.5571 12.2083 16.7143 12.4031 16.7143C12.5972 16.7143 12.7539 16.5571 12.7582 16.3558V16.3587L12.9359 13.2389Z" fill="white"/>
<path d="M13.6682 16.7201C13.8746 16.7201 14.0455 16.5484 14.0487 16.3373V16.339L14.21 13.2406L14.0487 5.52532C14.0456 5.31342 13.8747 5.14202 13.6682 5.14202C13.4619 5.14202 13.2915 5.31422 13.2873 5.52642L13.1439 13.2375L13.2873 16.3391C13.2915 16.5484 13.4619 16.7201 13.6682 16.7201Z" fill="white"/>
<path d="M14.9291 4.41621C14.7062 4.41621 14.5254 4.60111 14.5217 4.82651L14.355 13.2416L14.5227 16.2942C14.5254 16.5167 14.7063 16.701 14.9291 16.701C15.1486 16.701 15.3328 16.5166 15.3338 16.2905V16.2942L15.5158 13.2416L15.3338 4.82651C15.3328 4.60031 15.1486 4.41621 14.9291 4.41621Z" fill="white"/>
<path d="M16.082 16.723C16.091 16.7238 26.2443 16.7286 26.3095 16.7286C28.348 16.7286 29.9999 15.0564 29.9999 12.9929C29.9999 10.9305 28.3479 9.25802 26.3095 9.25802C25.8036 9.25802 25.3216 9.36142 24.882 9.54872C24.5898 6.18162 21.8005 3.54102 18.3978 3.54102C17.566 3.54102 16.7549 3.70722 16.0385 3.98792C15.7597 4.09692 15.6851 4.20932 15.6829 4.42712V16.281C15.6861 16.51 15.8607 16.7003 16.082 16.723Z" fill="white"/>
</svg>
