<svg width="21" height="21" viewBox="0 0 21 21" fill="none" xmlns="http://www.w3.org/2000/svg">
<path d="M10.5 0C4.725 0 0 4.725 0 10.5C0 16.275 4.725 21 10.5 21C16.275 21 21 16.275 21 10.5C21 4.725 16.3275 0 10.5 0ZM15.3309 15.1725C15.1209 15.4866 14.7534 15.5925 14.4375 15.3825C11.97 13.86 8.8725 13.5441 5.19663 14.3841C4.83087 14.4909 4.515 14.2275 4.41 13.9125C4.305 13.5441 4.5675 13.23 4.8825 13.125C8.8725 12.2316 12.3375 12.6 15.0675 14.28C15.435 14.4375 15.4866 14.8566 15.3309 15.1725ZM16.5909 12.285C16.3275 12.6525 15.855 12.81 15.4866 12.5475C12.6525 10.815 8.3475 10.29 5.04 11.34C4.62088 11.445 4.1475 11.235 4.0425 10.815C3.9375 10.395 4.1475 9.92163 4.5675 9.81662C8.4 8.6625 13.125 9.24088 16.38 11.235C16.6959 11.3934 16.8525 11.9175 16.5909 12.285ZM16.6959 9.345C13.335 7.35 7.7175 7.14 4.515 8.13837C3.99 8.295 3.465 7.98 3.3075 7.5075C3.15 6.98163 3.465 6.4575 3.9375 6.29912C7.665 5.19662 13.8075 5.40662 17.6934 7.7175C18.165 7.98 18.3225 8.61 18.06 9.0825C17.7984 9.45088 17.1675 9.60663 16.6959 9.345Z" fill="white"/>
</svg>
