<svg width="141" height="141" viewBox="0 0 141 141" fill="none" xmlns="http://www.w3.org/2000/svg">
<g clip-path="url(#clip0_2115_2201)">
<path d="M70.5 0C31.5674 0 0 31.5674 0 70.5C0 109.433 31.5674 141 70.5 141C109.433 141 141 109.433 141 70.5C141 31.5674 109.433 0 70.5 0ZM70.5 115.288C45.7669 115.288 25.7118 95.2331 25.7118 70.5C25.7118 45.7669 45.7669 25.7118 70.5 25.7118C95.2331 25.7118 115.288 45.7669 115.288 70.5C115.288 95.2331 95.2331 115.288 70.5 115.288Z" fill="white"/>
<path d="M7.76328 59.8834L8.17798 58.208L18.5622 57.7933L9.55481 52.6178L9.96951 50.9424L20.022 56.9639L19.4746 59.2199L7.77986 59.9L7.76328 59.8834Z" fill="#050505"/>
<path d="M11.0975 48.1555L11.7113 46.5796L22.1287 50.6769L21.5149 52.2528L11.0975 48.1555Z" fill="#050505"/>
<path d="M12.9056 43.5604L16.4555 37.0413L17.484 37.6053L14.7469 42.6315L18.0314 44.4064L20.6026 39.6788L21.5813 40.2096L19.0101 44.9373L22.5102 46.8449L25.2473 41.8187L26.2757 42.3827L22.7259 48.9018L12.889 43.5604H12.9056Z" fill="#050505"/>
<path d="M18.0148 34.1385L19.2092 32.7617L27.835 37.987L21.8301 29.7427L23.3065 28.0507L32.2641 32.8944L25.944 25.015L27.1549 23.6382L34.122 32.6788L32.4134 34.6362L23.4392 29.6763L29.5602 37.9207L27.8516 39.8781L17.9816 34.1551L18.0148 34.1385Z" fill="#050505"/>
<path d="M33.8068 18.3963L36.1955 17.0195L43.4114 23.688H43.4446L41.3213 14.0834L43.71 12.7065L49.2836 22.4107L47.8405 23.2401L42.8474 14.5478H42.8142L44.9044 24.2188L43.146 25.2307L35.8638 18.5622H35.8306L40.8237 27.271L39.3805 28.1004L33.8068 18.3963Z" fill="#050505"/>
<path d="M51.0917 20.4532C50.0799 19.8063 49.3002 18.5456 48.703 16.6711C48.1225 14.78 48.0561 13.2871 48.5206 12.1923C48.985 11.0975 50.0135 10.3012 51.5894 9.82016C53.1653 9.3391 54.4592 9.40546 55.471 10.0524C56.4829 10.6993 57.2792 11.96 57.8597 13.8345C58.4403 15.709 58.4901 17.2019 58.0256 18.2967C57.5612 19.3916 56.5327 20.1878 54.9568 20.6689C53.3809 21.1499 52.087 21.0836 51.0917 20.4366V20.4532ZM56.4995 18.0479C56.881 17.318 56.7981 16.0739 56.2507 14.3322C55.7033 12.5904 55.0729 11.5122 54.3596 11.114C53.6297 10.7159 52.8335 10.6662 51.9543 10.9316C51.0752 11.197 50.4614 11.6946 50.0799 12.4411C49.6983 13.171 49.7813 14.4151 50.3287 16.1569C50.8595 17.8986 51.4899 18.9603 52.2197 19.3584C52.9496 19.7565 53.7459 19.8229 54.6084 19.5409C55.4876 19.2755 56.118 18.7612 56.4829 18.0313L56.4995 18.0479Z" fill="#050505"/>
<path d="M59.2034 7.91238L64.6277 7.29862C65.706 7.1825 66.469 7.39815 66.9169 7.97873C67.3648 8.55932 67.6302 9.2892 67.7297 10.185C67.8293 11.0641 67.7297 11.8272 67.398 12.4741C67.0828 13.1211 66.3695 13.5026 65.2747 13.6187L61.5755 14.0334L62.1229 18.844L60.4475 19.0431L59.1868 7.91238H59.2034ZM64.6941 12.64C65.3079 12.5737 65.706 12.3414 65.8884 11.9433C66.0709 11.5452 66.1207 11.031 66.0543 10.4172C65.988 9.78685 65.8055 9.30579 65.5401 8.95744C65.2747 8.60909 64.8268 8.47638 64.2296 8.54273L61.0115 8.90767L61.476 13.005L64.6941 12.64ZM64.0969 13.3201L65.7557 13.0216L68.725 18.1141L66.9003 18.3132L64.0969 13.3201Z" fill="#050505"/>
<path d="M70.2843 6.93384L77.6993 7.34854L77.6329 8.52631L71.9266 8.21113L71.7109 11.9435L77.0689 12.2421L77.0026 13.3701L71.6446 13.0715L71.4123 17.0527L77.1187 17.3678L77.0523 18.5456L69.6374 18.1309L70.2677 6.95043L70.2843 6.93384Z" fill="#050505"/>
<path d="M85.4626 8.67554L89.9414 10.0855C91.2851 10.5168 92.131 11.1969 92.4794 12.1425C92.8112 13.088 92.6619 14.5809 92.0315 16.6047C91.4012 18.6285 90.6713 19.9224 89.8419 20.5195C89.0125 21.1001 87.9342 21.1831 86.5906 20.7684L82.1118 19.3584L85.4792 8.67554H85.4626ZM86.5242 19.5242C87.3868 19.7897 88.1167 19.7399 88.6973 19.3584C89.2945 18.9768 89.8585 17.8986 90.4225 16.1237C90.9865 14.3487 91.1358 13.1212 90.8703 12.4742C90.6049 11.8273 90.0409 11.3628 89.1783 11.0974L86.7233 10.3344L84.0692 18.7612L86.5242 19.5408V19.5242Z" fill="#050505"/>
<path d="M96.3611 12.408L102.947 15.8251L102.399 16.8702L97.3232 14.2327L95.598 17.5503L100.375 20.022L99.8612 21.0173L95.0838 18.5456L93.2425 22.0789L98.3185 24.7164L97.7711 25.7615L91.1855 22.3443L96.3445 12.408H96.3611Z" fill="#050505"/>
<path d="M107.508 20.4036L104.771 18.3301L105.485 17.4011L112.286 22.5932L111.572 23.5222L108.852 21.4487L102.781 29.411L101.437 28.3825L107.508 20.4202V20.4036Z" fill="#050505"/>
<path d="M115.554 25.7781L117.229 27.5364L111.705 38.0036L110.494 36.7263L112.07 33.8731L108.985 30.655L106.049 32.0982L104.838 30.8375L115.537 25.7947L115.554 25.7781ZM112.7 32.8613L115.67 27.354L110.03 30.0578L112.7 32.8447V32.8613Z" fill="#050505"/>
<path d="M121.409 32.6123L122.405 33.9891L113.331 40.5415L112.336 39.1647L121.409 32.6123Z" fill="#050505"/>
<path d="M124.229 36.5605L125.059 38.0369L116.317 42.947L118.722 47.2268L117.694 47.7908L114.459 42.0347L124.229 36.5439V36.5605Z" fill="#050505"/>
<path d="M119.186 48.7693C119.585 47.9565 120.497 47.2929 121.89 46.7787L122.471 48.3712C121.277 48.8025 120.58 49.3001 120.381 49.8641C120.182 50.4115 120.232 51.1082 120.53 51.921C120.829 52.7339 121.21 53.2979 121.658 53.6296C122.123 53.9448 122.604 54.0112 123.118 53.8287C123.748 53.5965 124.08 53.1818 124.146 52.5514C124.213 51.9376 124.163 51.0916 124.047 50.0632C123.897 48.6698 123.914 47.6247 124.097 46.928C124.279 46.2313 124.81 45.717 125.689 45.4019C126.485 45.1033 127.281 45.1696 128.078 45.5678C128.874 45.9659 129.537 46.928 130.085 48.4209C130.649 49.9636 130.715 51.1414 130.301 51.9708C129.886 52.8002 129.007 53.4472 127.68 53.9448L127.099 52.3523C128.26 51.921 128.94 51.4234 129.123 50.8594C129.322 50.2954 129.272 49.6153 128.973 48.819C128.675 48.0062 128.293 47.4422 127.829 47.1105C127.364 46.7787 126.9 46.7123 126.419 46.8782C125.805 47.0939 125.473 47.5252 125.407 48.1555C125.341 48.7859 125.374 49.6153 125.473 50.6438C125.639 52.0869 125.639 53.132 125.473 53.8121C125.307 54.4922 124.777 54.9899 123.898 55.3216C123.068 55.6368 122.239 55.587 121.459 55.2055C120.663 54.824 119.983 53.8619 119.435 52.3358C118.855 50.7765 118.772 49.5821 119.186 48.7693Z" fill="#050505"/>
<path d="M133.237 81.1162L132.822 82.7916L122.438 83.2063L131.445 88.3818L131.03 90.0573L120.978 84.0357L121.525 81.7797L133.22 81.0996L133.237 81.1162Z" fill="#050505"/>
<path d="M129.902 92.8444L129.289 94.4202L118.871 90.323L119.485 88.7471L129.902 92.8444Z" fill="#050505"/>
<path d="M128.094 97.4388L124.544 103.958L123.516 103.394L126.253 98.3678L122.969 96.5928L120.397 101.32L119.419 100.79L121.99 96.062L118.49 94.1543L115.753 99.1806L114.724 98.6166L118.274 92.0974L128.111 97.4388H128.094Z" fill="#050505"/>
<path d="M122.985 106.861L121.791 108.238L113.165 103.013L119.17 111.257L117.694 112.966L108.736 108.122L115.056 116.001L113.862 117.378L106.878 108.338L108.587 106.38L117.561 111.34L111.44 103.096L113.148 101.138L123.018 106.861H122.985Z" fill="#050505"/>
<path d="M107.193 122.62L104.804 123.997L97.5886 117.328H97.5554L99.6787 126.933L97.29 128.31L91.7164 118.589L93.1595 117.76L98.1526 126.452H98.1858L96.0957 116.781L97.854 115.769L105.136 122.437H105.169L100.176 113.729L101.62 112.899L107.193 122.62Z" fill="#050505"/>
<path d="M89.9082 120.546C90.9201 121.193 91.6998 122.454 92.2969 124.328C92.8775 126.219 92.9439 127.712 92.4794 128.807C92.0149 129.902 90.9865 130.698 89.4106 131.179C87.8347 131.66 86.5408 131.594 85.5289 130.947C84.5171 130.3 83.7208 129.039 83.1402 127.165C82.5596 125.291 82.5099 123.798 82.9744 122.703C83.4388 121.608 84.4673 120.812 86.0432 120.331C87.6191 119.85 88.9129 119.916 89.9082 120.563V120.546ZM84.5005 122.952C84.1189 123.681 84.2019 124.926 84.7493 126.667C85.2967 128.409 85.9271 129.487 86.6404 129.885C87.3702 130.284 88.1665 130.333 89.0456 130.068C89.9248 129.803 90.5386 129.305 90.9201 128.575C91.3017 127.845 91.2187 126.601 90.6713 124.859C90.1405 123.117 89.4935 122.056 88.7802 121.658C88.0504 121.26 87.2541 121.193 86.3915 121.475C85.5124 121.741 84.882 122.255 84.5171 122.985L84.5005 122.952Z" fill="#050505"/>
<path d="M76.9031 127.679L75.2443 127.978L72.275 122.885L74.0997 122.686L76.9031 127.696V127.679ZM81.7966 133.087L76.3723 133.701C75.294 133.817 74.531 133.601 74.0831 133.021C73.6352 132.44 73.3698 131.71 73.2703 130.814C73.1707 129.935 73.2703 129.172 73.602 128.525C73.9172 127.878 74.6305 127.497 75.7253 127.381L79.4245 126.966L78.8771 122.155L80.5525 121.956L81.8132 133.087H81.7966ZM76.3059 128.359C75.6921 128.426 75.294 128.658 75.1116 129.056C74.9291 129.454 74.8793 129.968 74.9457 130.582C75.012 131.213 75.1945 131.694 75.4599 132.042C75.7253 132.39 76.1732 132.523 76.7704 132.457L79.9885 132.092L79.524 127.994L76.3059 128.359Z" fill="#050505"/>
<path d="M70.7157 134.066L63.3007 133.651L63.3671 132.473L69.0734 132.789L69.2891 129.056L63.9311 128.758L63.9974 127.646L69.372 127.945L69.6042 123.964L63.8979 123.632L63.9643 122.454L71.3792 122.869L70.7488 134.049L70.7157 134.066Z" fill="#050505"/>
<path d="M55.5208 132.324L51.042 130.914C49.6983 130.483 48.8523 129.803 48.504 128.857C48.1722 127.912 48.3215 126.419 48.9519 124.395C49.5822 122.371 50.3121 121.078 51.1415 120.48C51.9709 119.9 53.0491 119.817 54.3928 120.232L58.8716 121.642L55.5042 132.324H55.5208ZM54.4757 121.492C53.6131 121.227 52.8833 121.277 52.3027 121.658C51.7055 122.04 51.1415 123.118 50.5775 124.893C50.0135 126.684 49.8642 127.895 50.1296 128.542C50.395 129.189 50.959 129.654 51.8216 129.919L54.2767 130.682L56.9308 122.255L54.4757 121.492Z" fill="#050505"/>
<path d="M44.6389 128.575L38.0534 125.158L38.6008 124.113L43.6768 126.751L45.402 123.433L40.6246 120.961L41.1388 119.966L45.8996 122.438L47.7409 118.905L42.6649 116.267L43.2123 115.222L49.7979 118.639L44.6389 128.575Z" fill="#050505"/>
<path d="M33.4916 120.596L36.2287 122.686L35.5154 123.615L28.7142 118.423L29.4275 117.494L32.148 119.568L38.2193 111.605L39.5795 112.634L33.5082 120.596H33.4916Z" fill="#050505"/>
<path d="M25.4463 115.222L23.7709 113.463L29.2948 102.996L30.5057 104.273L28.9298 107.127L32.0153 110.345L34.9514 108.902L36.1623 110.162L25.4629 115.205L25.4463 115.222ZM28.2995 108.138L25.3302 113.646L30.9702 110.925L28.2995 108.138Z" fill="#050505"/>
<path d="M19.6239 108.437L18.6286 107.06L27.7024 100.508L28.6977 101.885L19.6239 108.437Z" fill="#050505"/>
<path d="M16.7707 104.439L15.9413 102.963L24.6833 98.053L22.278 93.7732L23.3065 93.1926L26.5412 98.9487L16.7707 104.423V104.439Z" fill="#050505"/>
<path d="M21.8135 92.2304C21.4154 93.0432 20.503 93.7068 19.1096 94.221L18.529 92.6285C19.7234 92.1972 20.4201 91.6996 20.6192 91.1356C20.8182 90.5716 20.7685 89.8915 20.4699 89.0787C20.1713 88.2658 19.7898 87.7018 19.3419 87.3701C18.894 87.0549 18.3963 86.9885 17.8821 87.171C17.2518 87.4032 16.92 87.8179 16.8536 88.4483C16.8039 89.0621 16.837 89.9081 16.9532 90.9365C17.1025 92.3299 17.0859 93.375 16.9034 94.0717C16.7209 94.7684 16.1901 95.2827 15.3109 95.5978C14.5147 95.8964 13.7185 95.8301 12.9222 95.4319C12.126 95.0338 11.4625 94.0717 10.915 92.5788C10.351 91.0361 10.2847 89.8583 10.6994 89.0289C11.1141 88.1995 11.9933 87.5525 13.3203 87.0549L13.9009 88.6474C12.7398 89.0787 12.0762 89.5597 11.8772 90.1403C11.6781 90.7043 11.7279 91.3844 12.0265 92.1807C12.325 92.9935 12.7066 93.5575 13.171 93.8892C13.6355 94.221 14.1 94.2874 14.581 94.1049C15.1948 93.8892 15.5266 93.4579 15.5929 92.8276C15.6593 92.1972 15.6261 91.3678 15.5266 90.3394C15.3607 88.8962 15.3607 87.8511 15.5266 87.1544C15.6925 86.4577 16.2233 85.9767 17.1025 85.6449C17.9319 85.3297 18.7613 85.3795 19.5409 85.761C20.3372 86.1425 21.0173 87.1046 21.5647 88.6142C22.1453 90.1735 22.2282 91.3678 21.8135 92.1807V92.2304Z" fill="#050505"/>
<path d="M13.2706 75.4765C14.6448 75.4765 15.7588 74.3624 15.7588 72.9882C15.7588 71.614 14.6448 70.5 13.2706 70.5C11.8964 70.5 10.7823 71.614 10.7823 72.9882C10.7823 74.3624 11.8964 75.4765 13.2706 75.4765Z" fill="#050505"/>
<path d="M127.729 70.4999C129.104 70.4999 130.218 69.3859 130.218 68.0117C130.218 66.6375 129.104 65.5234 127.729 65.5234C126.355 65.5234 125.241 66.6375 125.241 68.0117C125.241 69.3859 126.355 70.4999 127.729 70.4999Z" fill="#050505"/>
</g>
<defs>
<clipPath id="clip0_2115_2201">
<rect width="141" height="141" fill="white"/>
</clipPath>
</defs>
</svg>
