<svg width="24" height="21" viewBox="0 0 24 21" fill="none" xmlns="http://www.w3.org/2000/svg">
<path d="M23.4989 4.62499C23.3598 4.11983 23.0945 3.65958 22.7286 3.28873C22.3627 2.91787 21.9086 2.64896 21.4102 2.50798C19.5395 2.00001 12.0107 2.00001 12.0107 2.00001C12.0107 2.00001 4.50089 1.98988 2.61119 2.50798C2.11276 2.64896 1.65865 2.91787 1.29275 3.28873C0.92684 3.65958 0.661513 4.11983 0.52241 4.62499C0.167799 6.5661 -0.00702607 8.53656 0.000216073 10.5107C-0.00565698 12.4773 0.169162 14.4402 0.52241 16.374C0.661513 16.8792 0.92684 17.3394 1.29275 17.7103C1.65865 18.0811 2.11276 18.35 2.61119 18.491C4.47988 19 12.0107 19 12.0107 19C12.0107 19 19.5195 19 21.4102 18.491C21.9086 18.35 22.3627 18.0811 22.7286 17.7103C23.0945 17.3394 23.3598 16.8792 23.4989 16.374C23.8448 14.4395 24.0123 12.4766 23.9991 10.5107C24.0136 8.53726 23.8462 6.56681 23.4989 4.62499ZM9.60779 14.1516V6.8586L15.8741 10.5107L9.60779 14.1516Z" fill="white"/>
</svg>
